<?xml version="1.0" encoding="utf-8"?>
<!-- Generator: Adobe Illustrator 23.0.3, SVG Export Plug-In . SVG Version: 6.00 Build 0)  -->
<svg version="1.1" xmlns="http://www.w3.org/2000/svg" xmlns:xlink="http://www.w3.org/1999/xlink" x="0px" y="0px"
	 viewBox="0 0 476 120" style="enable-background:new 0 0 476 120;" xml:space="preserve">
<style type="text/css">
	.st0{display:none;}
	.st1{fill:#FFFFFF;}
	.st2{fill:#242528;}
	.st3{fill:#4191DC;}
	.st4{fill:#A2C6ED;}
	.st5{fill:#3A8BDA;}
	.st6{fill:#3A8CDA;}
	.st7{fill:#8DBCEA;}
	.st8{fill:#4192DC;}
	.st9{fill:#4493DD;}
	.st10{fill:#B6D3F0;}
	.st11{fill:#6AA9E3;}
	.st12{fill:#BBD6F1;}
	.st13{fill:#67A7E2;}
	.st14{fill:#BFDAF3;}
	.st15{fill:#C9C9C9;}
	.st16{fill:#A9A9AA;}
	.st17{fill:#37383F;}
	.st18{fill:none;}
	.st19{clip-path:url(#SVGID_2_);}
	.st20{clip-path:url(#SVGID_4_);fill:#FFFFFF;}
	.st21{clip-path:url(#SVGID_4_);}
</style>
<g id="Layer_2" class="st0">
</g>
<g id="Layer_1">
	<g>
		<g>
			<g>
				<path class="st1" d="M-572.11,65.28c1.06-0.66,1.77-1.15,2.51-1.55c11.32-6.15,16.45-16.77,14.23-29.49
					c-2.23-12.83-9.79-21.04-23.08-21.87c-15.88-0.99-31.88-0.23-48.56-0.23c-7.47,22.44-15.23,45.73-23.56,70.77
					c-1.46-4.06-2.24-6.11-2.94-8.18c-6.68-19.5-13.28-39.03-20.1-58.48c-0.68-1.94-2.56-4.76-4.07-4.89
					c-6.47-0.55-13.01-0.23-20.16-0.23c0.99,3.11,1.59,5.21,2.32,7.26c9.3,26.1,18.62,52.19,27.95,78.28
					c5.18,14.48,5.19,14.21,20.92,14.58c5.19,0.12,7.24-1.68,8.86-6.35c8.29-23.87,16.88-47.64,25.55-71.37
					c0.7-1.91,2.72-4.65,4.24-4.73c7.07-0.36,14.24-0.41,21.26,0.39c6.76,0.78,10.38,5.65,10.2,11.87
					c-0.19,6.43-4.5,10.73-11.57,11.38c-3.86,0.35-7.74,0.46-12.43,0.73c11.25,17.13,21.84,33.25,32.42,49.37
					c5.74,8.74,10.12,10.54,20.26,8.26c2.23-0.5,4.42-1.14,7.19-1.85C-551.32,94.18-561.66,79.81-572.11,65.28z"/>
				<path class="st1" d="M-716.27,67.25c0-6.11,0-11.5,0-17.56c-16.52,0-32.6,0-48.66,0c0-7.39,0-14.11,0-21.32
					c17.78,0,35.01,0,52.57,0c0-5.94,0-11.35,0-17.17c-24.83,0-49.31,0-73.81,0c0,33.45,0,66.4,0,99.49c25.52,0,50.49,0,75.49,0
					c0-5.81,0-11.19,0-17.18c-18.43,0-36.31,0-54.44,0c0-8.93,0-17.24,0-26.26C-748.67,67.25-732.58,67.25-716.27,67.25z"/>
				<path class="st1" d="M-909.84,36.5c-6.89-34.13-50.07-35.71-68.63-20.71c-15.41,12.45-18.6,29.43-17.72,47.89
					c1.47,30.67,20.97,48.15,51.33,46.07c18.23-1.25,33.52-15.51,34.75-32.71c-6.2-1.94-12.46-3.89-19-5.93
					c-1.15,2.96-2,5.45-3.06,7.84c-3.68,8.25-9.95,13.19-19.09,13.14c-9.2-0.05-16.58-4.37-20.01-13.01
					c-5.35-13.47-5.47-27.43-0.24-40.96c3.23-8.34,10.26-12.67,19.17-13.37c7.92-0.62,14.34,2.45,18.79,9.11
					c1.44,2.16,2.37,4.65,3.76,7.44C-923,39.66-916.41,38.08-909.84,36.5z"/>
				<path class="st1" d="M-883.86,10.96c0,33.06,0,65.74,0,98.38c23.52,0,46.51,0,69.61,0c0-5.83,0-11.22,0-17.26
					c-16.63,0-32.75,0-49.63,0c0-27.38,0-54.13,0-81.12C-870.97,10.96-877.29,10.96-883.86,10.96z"/>
				<path class="st1" d="M-602.22,69.82c-4.94-0.29-9.5,3.79-9.79,8.76c-0.29,4.94,3.79,9.5,8.76,9.79c4.94,0.29,9.5-3.79,9.79-8.76
					C-593.17,74.68-597.25,70.11-602.22,69.82z"/>
				<path d="M-572.11,65.28c10.45,14.53,20.79,28.9,31.41,43.66c-2.77,0.72-4.96,1.35-7.19,1.85c-10.13,2.29-14.52,0.48-20.26-8.26
					c-10.58-16.12-21.17-32.24-32.42-49.37c4.69-0.27,8.57-0.38,12.43-0.73c7.08-0.64,11.38-4.95,11.57-11.38
					c0.18-6.22-3.44-11.1-10.2-11.87c-7.02-0.81-14.19-0.75-21.26-0.39c-1.52,0.08-3.55,2.82-4.24,4.73
					c-8.67,23.74-17.26,47.5-25.55,71.37c-1.62,4.67-3.67,6.47-8.86,6.35c-15.73-0.37-15.75-0.1-20.92-14.58
					c-9.33-26.09-18.64-52.18-27.95-78.28c-0.73-2.05-1.33-4.15-2.32-7.26c7.15,0,13.69-0.31,20.16,0.23
					c1.52,0.13,3.39,2.95,4.07,4.89c6.82,19.45,13.43,38.98,20.1,58.48c0.71,2.07,1.48,4.12,2.94,8.18
					c8.34-25.04,16.09-48.33,23.56-70.77c16.68,0,32.68-0.76,48.56,0.23c13.29,0.83,20.85,9.04,23.08,21.87
					c2.22,12.72-2.92,23.34-14.23,29.49C-570.35,64.13-571.05,64.62-572.11,65.28z"/>
				<path d="M-716.27,67.25c-16.31,0-32.4,0-48.84,0c0,9.02,0,17.33,0,26.26c18.13,0,36.01,0,54.44,0c0,5.99,0,11.38,0,17.18
					c-25,0-49.97,0-75.49,0c0-33.09,0-66.03,0-99.49c24.5,0,48.98,0,73.81,0c0,5.82,0,11.24,0,17.17c-17.56,0-34.79,0-52.57,0
					c0,7.21,0,13.93,0,21.32c16.06,0,32.14,0,48.66,0C-716.27,55.74-716.27,61.14-716.27,67.25z"/>
				<path d="M-909.84,36.5c-6.57,1.58-13.16,3.16-19.94,4.79c-1.39-2.79-2.32-5.29-3.76-7.44c-4.45-6.66-10.87-9.73-18.79-9.11
					c-8.91,0.7-15.94,5.03-19.17,13.37c-5.24,13.53-5.11,27.49,0.24,40.96c3.43,8.64,10.81,12.95,20.01,13.01
					c9.14,0.05,15.41-4.89,19.09-13.14c1.07-2.39,1.91-4.88,3.06-7.84c6.54,2.04,12.8,4,19,5.93c-1.24,17.2-16.52,31.46-34.75,32.71
					c-30.37,2.09-49.87-15.39-51.33-46.07c-0.88-18.46,2.31-35.44,17.72-47.89C-959.91,0.8-916.73,2.37-909.84,36.5z"/>
				<path d="M-883.86,10.96c6.57,0,12.89,0,19.98,0c0,26.99,0,53.74,0,81.12c16.87,0,32.99,0,49.63,0c0,6.03,0,11.43,0,17.26
					c-23.1,0-46.09,0-69.61,0C-883.86,76.7-883.86,44.03-883.86,10.96z"/>
				<path d="M-602.22,69.82c4.97,0.29,9.05,4.85,8.76,9.79c-0.29,4.97-4.85,9.05-9.79,8.76c-4.96-0.29-9.05-4.85-8.76-9.79
					C-611.72,73.62-607.16,69.54-602.22,69.82z"/>
				<g>
					<path class="st2" d="M-903.97-177.53c1.85-20.75,9.11-43.33,21.49-64.29c2.64-4.47,5.73-4.92,10.42-2.9
						c33.15,14.3,66.48,28.18,99.54,42.68c5.81,2.55,11.4,1.07,17.05,1.85c15.27,2.1,27.35,15.03,27.28,30.85
						c-0.07,16.15-10.27,28.16-25.45,31.42c-9.08,1.95-17.2-0.34-24.44-5.7c-3.98-2.95-8.58-2.52-12.88-3.17
						c-32.82-4.97-65.75-9.26-98.42-15.17c-1.63-0.3-3.25-0.72-4.89-0.97C-903.12-164.27-904.15-165.43-903.97-177.53z"/>
					<path class="st3" d="M-858.01-243.99c-10.49-4.11-10.96-4.59-2.69-12.74c30.08-29.67,65.71-42.58,107.86-33.73
						c33.68,7.08,58.88,26.06,76.07,55.73c3.25,5.61,5.53,11.7,7.14,18.03c0.62,2.45,0.68,3.77-2.48,3.57
						c-23.03-1.46-45.34-5.03-63.94-20.45c-10.49-8.7-22.29-12.33-35.79-8.26c-0.5,0.29-1.02,0.33-1.56,0.14
						c-24.72-16.9-50.49-14.91-76.74-4.25C-852.68-244.91-854.97-242.97-858.01-243.99z"/>
					<path class="st4" d="M-631.96-60.96c-12.64,11.24-27.89,16.53-44.24,18.87c-18.34,2.63-36.43,0.9-54.17-4.5
						c-1.26-0.39-2.6-0.88-3.6,0.56c-2.24,0.42-2.91-1.47-4.01-2.72c-11.58-17.57-28.25-26.71-48.92-27.42
						c-15.38-0.53-28.52,5.7-38.34,17.99c-1.03,1.29-2.09,2.56-3.26,3.81c-0.58,0.11,0.35,0.81,0,0.24
						c-0.16-0.27-0.05-0.34,0.28-0.42c1.52-0.39,3.03-0.83,3.21,1.54c-11.78-0.5-23.24,2.31-34.85,3.54
						c-8.01,0.85-15.35-0.53-22.3-4.45c4.48-6.58,9.47-12.79,14.71-18.74c8.03-9.11,18.71-9.66,29.78-8.33
						c4.93,0.59,9.83,1.5,14.81,1.64c6.48,0.19,12.56-0.82,17.49-5.57c0.92-0.89,2.01-1.82,3.53-1.15
						c10.8,3.44,21.92,5.41,33.19,5.77c6.57,0.21,13.37-0.31,19.74-1.87c15.07-3.67,25.22,3.02,33.96,14.16
						c6.1,7.78,12.73,15.29,23.61,15.92c12.81,0.74,25.55,0.03,38.03-3.33c6.57-1.77,13.12-3.61,19.28-6.6
						C-632.81-62.69-631.95-62.68-631.96-60.96z"/>
					<path class="st3" d="M-737.01-48.99c1.01,0.99,2.03,1.97,3.04,2.96c7.21,10.54,16.27,17.36,29.95,14.96
						c1.31-0.35,2.79-1.2,3.17,1.11c-5.98,5.23-13.45,6.26-20.86,6.96c-17.42,1.63-34.38-1.61-51.26-5.38
						c-5.82-1.3-11.63-2.7-17.68-2.69c-6.01,0.01-11.49,1.78-16.52,4.87c-3.18,1.95-4.22,0.84-4.88-2.32
						c-1.22-5.82-2.66-11.6-4.02-17.39c-0.41-1.03,0.04-1.99,0.22-2.97c7.21-13.98,18.6-21.55,34.37-22.37
						c2.88-0.15,5.71,0.44,8.21,1.74C-760.95-63.09-749.48-55.15-737.01-48.99z"/>
					<path class="st5" d="M-742.19-100.92c-0.27,0.01-0.52-0.03-0.77-0.13c-1.45-0.76-3.2-0.85-4.44-2.06
						c-6.42-6.25-14.18-6.12-22.3-4.92c-6.26,0.92-11.91,4.02-18.21,4.73c-4.99,2.34-10.19,0.93-15.2,0.53
						c-26.16-2.08-52.28-3.05-78.38,0.72c-2.36,0.34-5.34,1.59-6.58-2.08c0.97-4.12-3.17-4.66-4.84-6.92
						c-1.12-2.63,0.77-3.61,2.59-4.36c16.88-6.97,34.1-12.42,52.73-10.79c7.59,0.66,14.53,3.76,21.16,7.16
						c7.42,3.8,13.64,2.53,19.84-2.38c4.46-3.53,8.13-7.86,12.36-11.6c2.36-2.08,4.71-4.41,8.36-3.19
						c5.65,2.61,11.46,4.58,17.8,4.38c1.91,0.55,3.82,1.09,5.14,2.76c6.46,8.18,13.29,16.05,20.48,23.6
						c0.69,0.73,1.13,1.64,0.95,2.72C-734.63-99.52-738.3-99.59-742.19-100.92z"/>
					<path class="st4" d="M-772.89-242.1c0.35,0.09,0.7,0.18,1.06,0.27c6.01,5.85,10.06,13.2,15.04,19.83
						c7.08,9.42,16.6,13.35,27.94,14.03c11.76,0.71,23.56,1.01,34.88,5.01c7.29,2.57,13.96,6.15,20.01,10.92
						c0.02,1.77-0.93,1.67-2.13,1.1c-12.28-3.73-24.71-6.44-37.67-6.1c-5.04,0.14-9.96,0.81-14.57,2.82
						c-2.07,0.9-3.43,1.01-5.23-0.72c-7.73-7.42-17.12-10.66-27.76-10.01c-3.28,0.2-5.52-0.66-7.62-3.35
						c-2.87-3.67-6.38-6.83-11.2-7.93c-0.97-0.22-2.14-0.92-2.86-0.6c-8.47,3.79-14.84-2.17-21.95-4.62
						c-1.08-0.37-2.06-1.01-3.08-1.53c0.23-1.63,1.38-2.61,2.59-3.47c8.67-6.11,17.86-11.26,27.75-15.12
						C-776.17-242.15-774.58-242.73-772.89-242.1z"/>
					<path class="st4" d="M-775.89-136.22c-3.43,0.26-5.68,2.53-7.96,4.71c-4.44,4.25-8.6,8.81-13.63,12.42
						c-5.7,4.09-11.64,5.46-18.14,1.82c-18.07-10.13-36.79-9.68-55.9-3.43c-6.15,2.01-12.38,3.78-18.31,6.45
						c-1.54,0.69-3.3,0.92-3.09,3.2c-2.46-2.16-0.99-4.44,0.24-6.22c2.1-3.03,3.06-6.21,2.85-9.82c8.77,3.71,17.28,1.59,25.69-1.29
						c12.41-4.25,23.17-11.58,34.1-18.57c14.65,2.05,29.3,4.1,43.95,6.13C-782.24-140.28-779.06-138.28-775.89-136.22z"/>
					<path class="st6" d="M-830.05-146.95c-3.1,5.31-8.85,7.11-13.67,10.02c-12.56,7.6-25.6,13.88-40.93,13.13
						c-2.7-0.13-4.26-0.92-5.19-3.29c-2.03-4.69-6.08-7.38-10.16-9.94c-8.67-5.44-8.86-10.8-0.96-19.48
						c1.5-1.65,3.14-1.26,5.01-0.96C-873.99-153.92-852.02-150.45-830.05-146.95z"/>
					<path class="st4" d="M-732.02-103.91c-7.42-6.47-13.5-14.17-19.72-21.72c-1.92-2.33-3.86-4.53-6.35-6.22
						c6.65-0.05,12.81-1.96,18.38-5.42c2.15-1.34,3.65-1.26,5.84-0.3c7.79,3.4,15.96,5.93,24.43,6.25
						c8.9,0.34,17.32-2.56,25.38-6.24c4.15-1.9,8.17-4.09,13.33-6.7c-6.26,10.55-13.9,18.22-22.62,24.83
						c-9.62,7.3-20.35,12.46-32.07,15.49c-1.43,0.37-2.95,0.62-3.81,2.07C-730.89-101.55-731.16-103.13-732.02-103.91z"/>
					<path class="st7" d="M-772.89-242.1c-12.69,4.6-24.43,10.93-35.15,19.13c-13.34-4.64-26.02-10.89-39.09-16.18
						c-3.68-1.49-7.25-3.22-10.88-4.84c8.55-3.5,16.81-7.87,26.04-9.47c18.46-3.21,36.53-3.03,53.42,6.63
						C-776.37-245.57-774.32-244.23-772.89-242.1z"/>
					<path class="st7" d="M-801.83-86.07c-9.72,10.8-22.25,8.82-34.24,6.7c-15.32-2.7-27.16,1.08-36.11,14.27
						c-2.73,4.03-4.88,9.06-9.97,11.18c-4.03-2.44-5.16-6.18-4.95-10.64c0.29-6.3,1.36-12.46,3.18-18.49
						c0.26-0.21,0.51-0.53,0.81-0.57c11.01-1.64,19.77-8.11,29.2-13.27c12.06-6.6,24.1-6.58,35.54,1.89
						c4.98,3.69,11.31,4.66,16.45,8.06C-801.87-86.65-801.84-86.36-801.83-86.07z"/>
					<path class="st3" d="M-801.93-86.94c-6.4-0.77-12.24-3.42-17.26-7.07c-10.42-7.59-21.12-7.94-32.28-2.65
						c-4.62,2.19-8.9,5.1-13.24,7.84c-5.89,3.72-12.27,5.65-19.22,5.78c0.39-4.85-0.75-9.09-4.39-12.61
						c-2.84-2.75-2.98-5.74,0.23-8.48c3.97,3.01,8.21,0.42,11.94-0.15c12.91-1.99,25.83-1.61,38.77-1.71
						c15.44-0.12,30.78,1.29,46.12,2.71c1.42,0.13,2.91-0.42,4.36-0.66c0.26,0.26,0.32,0.47,0.18,0.64
						c-0.12,0.15-0.24,0.22-0.36,0.22C-793.83-99.37-797.76-93.04-801.93-86.94z"/>
					<path class="st7" d="M-737.01-48.99c-9.39-2.67-17.48-7.87-25.57-13.08c-5.7-3.67-11.24-8.11-18.43-7.92
						c-15.68,0.41-26.84,8.19-34.04,21.93c-2.81,0.58-3.17-3.46-5.86-3.1c-1.37-0.62-2.73-1.24-4.1-1.86
						c-1.01-1.52-2.78-0.68-4.53-1.37c8.56-12.7,19.81-20.85,35.01-22.53c20.02-2.21,36.99,4.46,50.89,18.88
						C-741.06-55.36-738.23-52.72-737.01-48.99z"/>
					<path class="st8" d="M-651.98-171.98c-20.8,15.71-44.07,22.76-70.15,20.19c-2.81-0.28-3.25-1.12-2.41-3.77
						c1.1-3.46,2.27-7.12,2.22-10.68c-0.05-4.59,1.89-4.43,5.34-3.86c16.14,2.64,32.32,4.32,48.65,1.22
						c4.94-0.94,9.59-2.65,14.34-4.13C-652.82-173.64-651.89-173.81-651.98-171.98z"/>
					<path class="st4" d="M-787.08-103.09c0.05-0.29,0.12-0.57,0.19-0.86c6.84-2.99,13.87-5.23,21.34-6.08
						c9.19-1.04,16.44,2.52,22.58,8.98C-757.73-100.52-772.37-102.6-787.08-103.09z"/>
					<path class="st9" d="M-732.02-103.91c0.93,0.68,1.86,1.36,2.79,2.04c7,5.78,15.14,9.11,24.53,10.69
						c-7.73,5.06-29.16-0.85-37.5-9.74C-738.82-101.97-734.67-100.38-732.02-103.91z"/>
					<path class="st10" d="M-676.09-190.94c0.85-0.09,1.68-0.22,2.13-1.1c2.1,1.09,4.31,2.07,5.71,5.26
						C-671.32-188.41-673.71-189.68-676.09-190.94z"/>
					<path class="st11" d="M-820.91-51.16c3.24-1.4,3.58,2.69,5.87,3.1c-0.34,0.71-0.68,1.42-1.03,2.13
						C-817.68-47.67-819.29-49.41-820.91-51.16z"/>
					<path class="st12" d="M-631.96-60.96c-0.44-0.83-1.22-1.01-2.06-1.06c1.41-1.46,3.2-2.18,5.79-3
						C-629.23-62.89-630.47-61.82-631.96-60.96z"/>
					<path class="st13" d="M-651.98-171.98c-0.42-0.83-1.22-0.92-2.01-1.02c1.2-1.35,2.9-1.29,4.57-2.11
						C-649.59-173.02-650.86-172.57-651.98-171.98z"/>
					<path class="st14" d="M-700.85-29.97c-0.72-1.32-2.11-0.74-3.17-1.11c1.5-1.44,3.29-0.87,5.07-0.82
						C-698.96-30.56-700.16-30.52-700.85-29.97z"/>
					<path class="st15" d="M-784.03-169.26c-0.42-13.62,10.84-24.45,24.66-24.65c13.51-0.2,24.4,11.24,24.39,25.02
						c-0.01,13.72-11.03,24.82-24.57,24.88C-772.98-143.94-785.66-156.43-784.03-169.26z"/>
					<path class="st16" d="M-759.74-147.97c-11.15,1-21.13-9.87-21.2-21.72c-0.06-11.21,10.27-21.28,21.45-21.29
						c12.17-0.01,21.16,9.56,21.6,22.01C-737.53-158.54-748.65-146.42-759.74-147.97z"/>
					<path class="st17" d="M-741.01-169.24c-0.06,10.29-8.47,18.39-18.93,18.24c-9.08-0.13-17.92-8.95-18-17.94
						c-0.08-9.8,9.2-19.23,18.68-18.99C-749.39-187.67-740.95-179.03-741.01-169.24z"/>
				</g>
			</g>
		</g>
		<rect x="-1012.5" y="-306.5" class="st18" width="484" height="428"/>
	</g>
	<g>
		<defs>
			<rect id="SVGID_1_" x="-420" y="-307" width="308" height="298"/>
		</defs>
		<clipPath id="SVGID_2_">
			<use xlink:href="#SVGID_1_"  style="overflow:visible;"/>
		</clipPath>
		<g class="st19">
			<path class="st2" d="M-400.47-177.03c1.85-20.75,9.11-43.33,21.49-64.29c2.64-4.47,5.73-4.92,10.42-2.9
				c33.15,14.3,66.48,28.18,99.54,42.68c5.81,2.55,11.4,1.07,17.05,1.85c15.27,2.1,27.35,15.03,27.28,30.85
				c-0.07,16.15-10.27,28.16-25.45,31.42c-9.08,1.95-17.2-0.34-24.44-5.7c-3.98-2.95-8.58-2.52-12.88-3.17
				c-32.82-4.97-65.75-9.26-98.42-15.17c-1.63-0.3-3.25-0.72-4.89-0.97C-399.62-163.77-400.65-164.93-400.47-177.03z"/>
			<path class="st3" d="M-354.51-243.49c-10.49-4.11-10.96-4.59-2.69-12.74c30.08-29.67,65.71-42.58,107.86-33.73
				c33.68,7.08,58.88,26.06,76.07,55.73c3.25,5.61,5.53,11.7,7.14,18.03c0.62,2.45,0.68,3.77-2.48,3.57
				c-23.03-1.46-45.34-5.03-63.94-20.45c-10.49-8.7-22.29-12.33-35.79-8.26c-0.5,0.29-1.02,0.33-1.56,0.14
				c-24.72-16.9-50.49-14.91-76.74-4.25C-349.18-244.41-351.47-242.47-354.51-243.49z"/>
			<path class="st4" d="M-128.46-60.46c-12.64,11.24-27.89,16.53-44.24,18.87c-18.34,2.63-36.43,0.9-54.17-4.5
				c-1.26-0.39-2.6-0.88-3.6,0.56c-2.24,0.42-2.91-1.47-4.01-2.72c-11.58-17.57-28.25-26.71-48.92-27.42
				c-15.38-0.53-28.52,5.7-38.34,17.99c-1.03,1.29-2.09,2.56-3.26,3.81c-0.58,0.11,0.35,0.81,0,0.24c-0.16-0.27-0.05-0.34,0.28-0.42
				c1.52-0.39,3.03-0.83,3.21,1.54c-11.78-0.5-23.24,2.31-34.85,3.54c-8.01,0.85-15.35-0.53-22.3-4.45
				c4.48-6.58,9.47-12.79,14.71-18.74c8.03-9.11,18.71-9.66,29.78-8.33c4.93,0.59,9.83,1.5,14.81,1.64
				c6.48,0.19,12.56-0.82,17.49-5.57c0.92-0.89,2.01-1.82,3.53-1.15c10.8,3.44,21.92,5.41,33.19,5.77
				c6.57,0.21,13.37-0.31,19.74-1.87c15.07-3.67,25.22,3.02,33.96,14.16c6.1,7.78,12.73,15.29,23.61,15.92
				c12.81,0.74,25.55,0.03,38.03-3.33c6.57-1.77,13.12-3.61,19.28-6.6C-129.31-62.19-128.45-62.18-128.46-60.46z"/>
			<path class="st3" d="M-233.51-48.49c1.01,0.99,2.03,1.97,3.04,2.96c7.21,10.54,16.27,17.36,29.95,14.96
				c1.31-0.35,2.79-1.2,3.17,1.11c-5.98,5.23-13.45,6.26-20.86,6.96c-17.42,1.63-34.38-1.61-51.26-5.38
				c-5.82-1.3-11.63-2.7-17.68-2.69c-6.01,0.01-11.49,1.78-16.52,4.87c-3.18,1.95-4.22,0.84-4.88-2.32
				c-1.22-5.82-2.66-11.6-4.02-17.39c-0.41-1.03,0.04-1.99,0.22-2.97c7.21-13.98,18.6-21.55,34.37-22.37
				c2.88-0.15,5.71,0.44,8.21,1.74C-257.45-62.59-245.98-54.65-233.51-48.49z"/>
			<path class="st5" d="M-238.69-100.42c-0.27,0.01-0.52-0.03-0.77-0.13c-1.45-0.76-3.2-0.85-4.44-2.06
				c-6.42-6.25-14.18-6.12-22.3-4.92c-6.26,0.92-11.91,4.02-18.21,4.73c-4.99,2.34-10.19,0.93-15.2,0.53
				c-26.16-2.08-52.28-3.05-78.38,0.72c-2.36,0.34-5.34,1.59-6.58-2.08c0.97-4.12-3.17-4.66-4.84-6.92
				c-1.12-2.63,0.77-3.61,2.59-4.36c16.88-6.97,34.1-12.42,52.73-10.79c7.59,0.66,14.53,3.76,21.16,7.16
				c7.42,3.8,13.64,2.53,19.84-2.38c4.46-3.53,8.13-7.86,12.36-11.6c2.36-2.08,4.71-4.41,8.36-3.19c5.65,2.61,11.46,4.58,17.8,4.38
				c1.91,0.55,3.82,1.09,5.14,2.76c6.46,8.18,13.29,16.05,20.48,23.6c0.69,0.73,1.13,1.64,0.95,2.72
				C-231.13-99.02-234.8-99.09-238.69-100.42z"/>
			<path class="st4" d="M-269.39-241.6c0.35,0.09,0.7,0.18,1.06,0.27c6.01,5.85,10.06,13.2,15.04,19.83
				c7.08,9.42,16.6,13.35,27.94,14.03c11.76,0.71,23.56,1.01,34.88,5.01c7.29,2.57,13.96,6.15,20.01,10.92
				c0.02,1.77-0.93,1.67-2.13,1.1c-12.28-3.73-24.71-6.44-37.67-6.1c-5.04,0.14-9.96,0.81-14.57,2.82c-2.07,0.9-3.43,1.01-5.23-0.72
				c-7.73-7.42-17.12-10.66-27.76-10.01c-3.28,0.2-5.52-0.66-7.62-3.35c-2.87-3.67-6.38-6.83-11.2-7.93
				c-0.97-0.22-2.14-0.92-2.86-0.6c-8.47,3.79-14.84-2.17-21.95-4.62c-1.08-0.37-2.06-1.01-3.08-1.53c0.23-1.63,1.38-2.61,2.59-3.47
				c8.67-6.11,17.86-11.26,27.75-15.12C-272.67-241.65-271.08-242.23-269.39-241.6z"/>
			<path class="st4" d="M-272.39-135.72c-3.43,0.26-5.68,2.53-7.96,4.71c-4.44,4.25-8.6,8.81-13.63,12.42
				c-5.7,4.09-11.64,5.46-18.14,1.82c-18.07-10.13-36.79-9.68-55.9-3.43c-6.15,2.01-12.38,3.78-18.31,6.45
				c-1.54,0.69-3.3,0.92-3.09,3.2c-2.46-2.16-0.99-4.44,0.24-6.22c2.1-3.03,3.06-6.21,2.85-9.82c8.77,3.71,17.28,1.59,25.69-1.29
				c12.41-4.25,23.17-11.58,34.1-18.57c14.65,2.05,29.3,4.1,43.95,6.13C-278.74-139.78-275.56-137.78-272.39-135.72z"/>
			<path class="st6" d="M-326.55-146.45c-3.1,5.31-8.85,7.11-13.67,10.02c-12.56,7.6-25.6,13.88-40.93,13.13
				c-2.7-0.13-4.26-0.92-5.19-3.29c-2.03-4.69-6.08-7.38-10.16-9.94c-8.67-5.44-8.86-10.8-0.96-19.48c1.5-1.65,3.14-1.26,5.01-0.96
				C-370.49-153.42-348.52-149.95-326.55-146.45z"/>
			<path class="st4" d="M-228.52-103.41c-7.42-6.47-13.5-14.17-19.72-21.72c-1.92-2.33-3.86-4.53-6.35-6.22
				c6.65-0.05,12.81-1.96,18.38-5.42c2.15-1.34,3.65-1.26,5.84-0.3c7.79,3.4,15.96,5.93,24.43,6.25c8.9,0.34,17.32-2.56,25.38-6.24
				c4.15-1.9,8.17-4.09,13.33-6.7c-6.26,10.55-13.9,18.22-22.62,24.83c-9.62,7.3-20.35,12.46-32.07,15.49
				c-1.43,0.37-2.95,0.62-3.81,2.07C-227.39-101.05-227.66-102.63-228.52-103.41z"/>
			<path class="st7" d="M-269.39-241.6c-12.69,4.6-24.43,10.93-35.15,19.13c-13.34-4.64-26.02-10.89-39.09-16.18
				c-3.68-1.49-7.25-3.22-10.88-4.84c8.55-3.5,16.81-7.87,26.04-9.47c18.46-3.21,36.53-3.03,53.42,6.63
				C-272.87-245.07-270.82-243.73-269.39-241.6z"/>
			<path class="st7" d="M-298.33-85.57c-9.72,10.8-22.25,8.82-34.24,6.7c-15.32-2.7-27.16,1.08-36.11,14.27
				c-2.73,4.03-4.88,9.06-9.97,11.18c-4.03-2.44-5.16-6.18-4.95-10.64c0.29-6.3,1.36-12.46,3.18-18.49
				c0.26-0.21,0.51-0.53,0.81-0.57c11.01-1.64,19.77-8.11,29.2-13.27c12.06-6.6,24.1-6.58,35.54,1.89
				c4.98,3.69,11.31,4.66,16.45,8.06C-298.37-86.15-298.34-85.86-298.33-85.57z"/>
			<path class="st3" d="M-298.43-86.44c-6.4-0.77-12.24-3.42-17.26-7.07c-10.42-7.59-21.12-7.94-32.28-2.65
				c-4.62,2.19-8.9,5.1-13.24,7.84c-5.89,3.72-12.27,5.65-19.22,5.78c0.39-4.85-0.75-9.09-4.39-12.61
				c-2.84-2.75-2.98-5.74,0.23-8.48c3.97,3.01,8.21,0.42,11.94-0.15c12.91-1.99,25.83-1.61,38.77-1.71
				c15.44-0.12,30.78,1.29,46.12,2.71c1.42,0.13,2.91-0.42,4.36-0.66c0.26,0.26,0.32,0.47,0.18,0.64c-0.12,0.15-0.24,0.22-0.36,0.22
				C-290.33-98.87-294.26-92.54-298.43-86.44z"/>
			<path class="st7" d="M-233.51-48.49c-9.39-2.67-17.48-7.87-25.57-13.08c-5.7-3.67-11.24-8.11-18.43-7.92
				c-15.68,0.41-26.84,8.19-34.04,21.93c-2.81,0.58-3.17-3.46-5.86-3.1c-1.37-0.62-2.73-1.24-4.1-1.86
				c-1.01-1.52-2.78-0.68-4.53-1.37c8.56-12.7,19.81-20.85,35.01-22.53c20.02-2.21,36.99,4.46,50.89,18.88
				C-237.56-54.86-234.73-52.22-233.51-48.49z"/>
			<path class="st8" d="M-148.48-171.48c-20.8,15.71-44.07,22.76-70.15,20.19c-2.81-0.28-3.25-1.12-2.41-3.77
				c1.1-3.46,2.27-7.12,2.22-10.68c-0.05-4.59,1.89-4.43,5.34-3.86c16.14,2.64,32.32,4.32,48.65,1.22
				c4.94-0.94,9.59-2.65,14.34-4.13C-149.32-173.14-148.39-173.31-148.48-171.48z"/>
			<path class="st4" d="M-283.58-102.59c0.05-0.29,0.12-0.57,0.19-0.86c6.84-2.99,13.87-5.23,21.34-6.08
				c9.19-1.04,16.44,2.52,22.58,8.98C-254.23-100.02-268.87-102.1-283.58-102.59z"/>
			<path class="st9" d="M-228.52-103.41c0.93,0.68,1.86,1.36,2.79,2.04c7,5.78,15.14,9.11,24.53,10.69
				c-7.73,5.06-29.16-0.85-37.5-9.74C-235.32-101.47-231.17-99.88-228.52-103.41z"/>
			<path class="st10" d="M-172.59-190.44c0.85-0.09,1.68-0.22,2.13-1.1c2.1,1.09,4.31,2.07,5.71,5.26
				C-167.82-187.91-170.21-189.18-172.59-190.44z"/>
			<path class="st11" d="M-317.41-50.66c3.24-1.4,3.58,2.69,5.87,3.1c-0.34,0.71-0.68,1.42-1.03,2.13
				C-314.18-47.17-315.79-48.91-317.41-50.66z"/>
			<path class="st12" d="M-128.46-60.46c-0.44-0.83-1.22-1.01-2.06-1.06c1.41-1.46,3.2-2.18,5.79-3
				C-125.73-62.39-126.97-61.32-128.46-60.46z"/>
			<path class="st13" d="M-148.48-171.48c-0.42-0.83-1.22-0.92-2.01-1.02c1.2-1.35,2.9-1.29,4.57-2.11
				C-146.09-172.52-147.36-172.07-148.48-171.48z"/>
			<path class="st14" d="M-197.35-29.47c-0.72-1.32-2.11-0.74-3.17-1.11c1.5-1.44,3.29-0.87,5.07-0.82
				C-195.46-30.06-196.66-30.02-197.35-29.47z"/>
			<path class="st15" d="M-280.53-168.76c-0.42-13.62,10.84-24.45,24.66-24.65c13.51-0.2,24.4,11.24,24.39,25.02
				c-0.01,13.72-11.03,24.82-24.57,24.88C-269.48-143.44-282.16-155.93-280.53-168.76z"/>
			<path class="st16" d="M-256.24-147.47c-11.15,1-21.13-9.87-21.2-21.72c-0.06-11.21,10.27-21.28,21.45-21.29
				c12.17-0.01,21.16,9.56,21.6,22.01C-234.03-158.04-245.15-145.92-256.24-147.47z"/>
			<path class="st17" d="M-237.51-168.74c-0.06,10.29-8.47,18.39-18.93,18.24c-9.08-0.13-17.92-8.95-18-17.94
				c-0.08-9.8,9.2-19.23,18.68-18.99C-245.89-187.17-237.45-178.53-237.51-168.74z"/>
		</g>
	</g>
	<g>
		<defs>
			<rect id="SVGID_3_" width="476" height="120"/>
		</defs>
		<clipPath id="SVGID_4_">
			<use xlink:href="#SVGID_3_"  style="overflow:visible;"/>
		</clipPath>
		<path class="st20" d="M437.89,66.28c1.06-0.66,1.77-1.15,2.51-1.55c11.32-6.15,16.45-16.77,14.23-29.49
			c-2.23-12.83-9.79-21.04-23.08-21.87c-15.88-0.99-31.88-0.23-48.56-0.23c-7.47,22.44-15.23,45.73-23.56,70.77
			c-1.46-4.06-2.24-6.11-2.94-8.18c-6.68-19.5-13.28-39.03-20.1-58.48c-0.68-1.94-2.56-4.76-4.07-4.89
			c-6.47-0.55-13.01-0.23-20.16-0.23c0.99,3.11,1.59,5.21,2.32,7.26c9.3,26.1,18.62,52.19,27.95,78.28
			c5.18,14.48,5.19,14.21,20.92,14.58c5.19,0.12,7.24-1.68,8.86-6.35c8.29-23.87,16.88-47.64,25.55-71.37
			c0.7-1.91,2.72-4.65,4.24-4.73c7.07-0.36,14.24-0.41,21.26,0.39c6.76,0.78,10.38,5.65,10.2,11.87
			c-0.19,6.43-4.5,10.73-11.57,11.38c-3.86,0.35-7.74,0.46-12.43,0.73c11.25,17.13,21.84,33.25,32.42,49.37
			c5.74,8.74,10.12,10.54,20.26,8.26c2.23-0.5,4.42-1.14,7.19-1.85C458.68,95.18,448.34,80.81,437.89,66.28z"/>
		<path class="st20" d="M293.73,68.25c0-6.11,0-11.5,0-17.56c-16.52,0-32.6,0-48.66,0c0-7.39,0-14.11,0-21.32
			c17.78,0,35.01,0,52.57,0c0-5.94,0-11.35,0-17.17c-24.83,0-49.31,0-73.81,0c0,33.45,0,66.4,0,99.49c25.52,0,50.49,0,75.49,0
			c0-5.81,0-11.19,0-17.18c-18.43,0-36.31,0-54.44,0c0-8.93,0-17.24,0-26.26C261.33,68.25,277.42,68.25,293.73,68.25z"/>
		<path class="st20" d="M100.16,37.5C93.27,3.37,50.09,1.8,31.53,16.79c-15.41,12.45-18.6,29.43-17.72,47.89
			c1.47,30.67,20.97,48.15,51.33,46.07c18.23-1.25,33.52-15.51,34.75-32.71c-6.2-1.94-12.46-3.89-19-5.93
			c-1.15,2.96-2,5.45-3.06,7.84c-3.68,8.25-9.95,13.19-19.09,13.14c-9.2-0.05-16.58-4.37-20.01-13.01
			c-5.35-13.47-5.47-27.43-0.24-40.96c3.23-8.34,10.26-12.67,19.17-13.37c7.92-0.62,14.34,2.45,18.79,9.11
			c1.44,2.16,2.37,4.65,3.76,7.44C87,40.66,93.59,39.08,100.16,37.5z"/>
		<path class="st20" d="M126.14,11.96c0,33.06,0,65.74,0,98.38c23.52,0,46.51,0,69.61,0c0-5.83,0-11.22,0-17.26
			c-16.63,0-32.75,0-49.63,0c0-27.38,0-54.13,0-81.12C139.03,11.96,132.71,11.96,126.14,11.96z"/>
		<path class="st20" d="M407.78,70.82c-4.94-0.29-9.5,3.79-9.79,8.76c-0.29,4.94,3.79,9.5,8.76,9.79c4.94,0.29,9.5-3.79,9.79-8.76
			C416.83,75.68,412.75,71.11,407.78,70.82z"/>
		<path class="st21" d="M437.89,66.28c10.45,14.53,20.79,28.9,31.41,43.66c-2.77,0.72-4.96,1.35-7.19,1.85
			c-10.13,2.29-14.52,0.48-20.26-8.26c-10.58-16.12-21.17-32.24-32.42-49.37c4.69-0.27,8.57-0.38,12.43-0.73
			c7.08-0.64,11.38-4.95,11.57-11.38c0.18-6.22-3.44-11.1-10.2-11.87c-7.02-0.81-14.19-0.75-21.26-0.39
			c-1.52,0.08-3.55,2.82-4.24,4.73c-8.67,23.74-17.26,47.5-25.55,71.37c-1.62,4.67-3.67,6.47-8.86,6.35
			c-15.73-0.37-15.75-0.1-20.92-14.58c-9.33-26.09-18.64-52.18-27.95-78.28c-0.73-2.05-1.33-4.15-2.32-7.26
			c7.15,0,13.69-0.31,20.16,0.23c1.52,0.13,3.39,2.95,4.07,4.89c6.82,19.45,13.43,38.98,20.1,58.48c0.71,2.07,1.48,4.12,2.94,8.18
			c8.34-25.04,16.09-48.33,23.56-70.77c16.68,0,32.68-0.76,48.56,0.23c13.29,0.83,20.85,9.04,23.08,21.87
			c2.22,12.72-2.92,23.34-14.23,29.49C439.65,65.13,438.95,65.62,437.89,66.28z"/>
		<path class="st21" d="M293.73,68.25c-16.31,0-32.4,0-48.84,0c0,9.02,0,17.33,0,26.26c18.13,0,36.01,0,54.44,0
			c0,5.99,0,11.38,0,17.18c-25,0-49.97,0-75.49,0c0-33.09,0-66.03,0-99.49c24.5,0,48.98,0,73.81,0c0,5.82,0,11.24,0,17.17
			c-17.56,0-34.79,0-52.57,0c0,7.21,0,13.93,0,21.32c16.06,0,32.14,0,48.66,0C293.73,56.74,293.73,62.14,293.73,68.25z"/>
		<path class="st21" d="M100.16,37.5c-6.57,1.58-13.16,3.16-19.94,4.79c-1.39-2.79-2.32-5.29-3.76-7.44
			c-4.45-6.66-10.87-9.73-18.79-9.11c-8.91,0.7-15.94,5.03-19.17,13.37c-5.24,13.53-5.11,27.49,0.24,40.96
			c3.43,8.64,10.81,12.95,20.01,13.01c9.14,0.05,15.41-4.89,19.09-13.14c1.07-2.39,1.91-4.88,3.06-7.84c6.54,2.04,12.8,4,19,5.93
			c-1.24,17.2-16.52,31.46-34.75,32.71c-30.37,2.09-49.87-15.39-51.33-46.07c-0.88-18.46,2.31-35.44,17.72-47.89
			C50.09,1.8,93.27,3.37,100.16,37.5z"/>
		<path class="st21" d="M126.14,11.96c6.57,0,12.89,0,19.98,0c0,26.99,0,53.74,0,81.12c16.87,0,32.99,0,49.63,0
			c0,6.03,0,11.43,0,17.26c-23.1,0-46.09,0-69.61,0C126.14,77.7,126.14,45.03,126.14,11.96z"/>
		<path class="st21" d="M407.78,70.82c4.97,0.29,9.05,4.85,8.76,9.79c-0.29,4.97-4.85,9.05-9.79,8.76
			c-4.96-0.29-9.05-4.85-8.76-9.79C398.28,74.62,402.84,70.54,407.78,70.82z"/>
	</g>
</g>
</svg>
