<?xml version="1.0" encoding="utf-8"?>
<!-- Generator: Adobe Illustrator 23.0.3, SVG Export Plug-In . SVG Version: 6.00 Build 0)  -->
<svg version="1.1" xmlns="http://www.w3.org/2000/svg" xmlns:xlink="http://www.w3.org/1999/xlink" x="0px" y="0px"
	 viewBox="0 0 484 428" style="enable-background:new 0 0 484 428;" xml:space="preserve">
<style type="text/css">
	.st0{display:none;}
	.st1{fill:#FFFFFF;}
	.st2{fill:#242528;}
	.st3{fill:#4191DC;}
	.st4{fill:#A2C6ED;}
	.st5{fill:#3A8BDA;}
	.st6{fill:#3A8CDA;}
	.st7{fill:#8DBCEA;}
	.st8{fill:#4192DC;}
	.st9{fill:#4493DD;}
	.st10{fill:#B6D3F0;}
	.st11{fill:#6AA9E3;}
	.st12{fill:#BBD6F1;}
	.st13{fill:#67A7E2;}
	.st14{fill:#BFDAF3;}
	.st15{fill:#C9C9C9;}
	.st16{fill:#A9A9AA;}
	.st17{fill:#37383F;}
	.st18{fill:none;}
	.st19{clip-path:url(#SVGID_2_);}
	.st20{clip-path:url(#SVGID_4_);fill:#FFFFFF;}
	.st21{clip-path:url(#SVGID_4_);}
</style>
<g id="Layer_2" class="st0">
</g>
<g id="Layer_1">
	<g>
		<g>
			<g>
				<path class="st1" d="M440.39,371.78c1.06-0.66,1.77-1.15,2.51-1.55c11.32-6.15,16.45-16.77,14.23-29.49
					c-2.23-12.83-9.79-21.04-23.08-21.87c-15.88-0.99-31.88-0.23-48.56-0.23c-7.47,22.44-15.23,45.73-23.56,70.77
					c-1.46-4.06-2.24-6.11-2.94-8.18c-6.68-19.5-13.28-39.03-20.1-58.48c-0.68-1.94-2.56-4.76-4.07-4.89
					c-6.47-0.55-13.01-0.23-20.16-0.23c0.99,3.11,1.59,5.21,2.32,7.26c9.3,26.1,18.62,52.19,27.95,78.28
					c5.18,14.48,5.19,14.21,20.92,14.58c5.19,0.12,7.24-1.68,8.86-6.35c8.29-23.87,16.88-47.64,25.55-71.37
					c0.7-1.91,2.72-4.65,4.24-4.73c7.07-0.36,14.24-0.41,21.26,0.39c6.76,0.78,10.38,5.65,10.2,11.87
					c-0.19,6.43-4.5,10.73-11.57,11.38c-3.86,0.35-7.74,0.46-12.43,0.73c11.25,17.13,21.84,33.25,32.42,49.37
					c5.74,8.74,10.12,10.54,20.26,8.26c2.23-0.5,4.42-1.14,7.19-1.85C461.18,400.68,450.84,386.31,440.39,371.78z"/>
				<path class="st1" d="M296.23,373.75c0-6.11,0-11.5,0-17.56c-16.52,0-32.6,0-48.66,0c0-7.39,0-14.11,0-21.32
					c17.78,0,35.01,0,52.57,0c0-5.94,0-11.35,0-17.17c-24.83,0-49.31,0-73.81,0c0,33.45,0,66.4,0,99.49c25.52,0,50.49,0,75.49,0
					c0-5.81,0-11.19,0-17.18c-18.43,0-36.31,0-54.44,0c0-8.93,0-17.24,0-26.26C263.83,373.75,279.92,373.75,296.23,373.75z"/>
				<path class="st1" d="M102.66,343c-6.89-34.13-50.07-35.71-68.63-20.71c-15.41,12.45-18.6,29.43-17.72,47.89
					c1.47,30.67,20.97,48.15,51.33,46.07c18.23-1.25,33.52-15.51,34.75-32.71c-6.2-1.94-12.46-3.89-19-5.93
					c-1.15,2.96-2,5.45-3.06,7.84c-3.68,8.25-9.95,13.19-19.09,13.14c-9.2-0.05-16.58-4.37-20.01-13.01
					c-5.35-13.47-5.47-27.43-0.24-40.96c3.23-8.34,10.26-12.67,19.17-13.37c7.92-0.62,14.34,2.45,18.79,9.11
					c1.44,2.16,2.37,4.65,3.76,7.44C89.5,346.16,96.09,344.58,102.66,343z"/>
				<path class="st1" d="M128.64,317.46c0,33.06,0,65.74,0,98.38c23.52,0,46.51,0,69.61,0c0-5.83,0-11.22,0-17.26
					c-16.63,0-32.75,0-49.63,0c0-27.38,0-54.13,0-81.12C141.53,317.46,135.21,317.46,128.64,317.46z"/>
				<path class="st1" d="M410.28,376.32c-4.94-0.29-9.5,3.79-9.79,8.76c-0.29,4.94,3.79,9.5,8.76,9.79c4.94,0.29,9.5-3.79,9.79-8.76
					C419.33,381.18,415.25,376.61,410.28,376.32z"/>
				<path d="M440.39,371.78c10.45,14.53,20.79,28.9,31.41,43.66c-2.77,0.72-4.96,1.35-7.19,1.85c-10.13,2.29-14.52,0.48-20.26-8.26
					c-10.58-16.12-21.17-32.24-32.42-49.37c4.69-0.27,8.57-0.38,12.43-0.73c7.08-0.64,11.38-4.95,11.57-11.38
					c0.18-6.22-3.44-11.1-10.2-11.87c-7.02-0.81-14.19-0.75-21.26-0.39c-1.52,0.08-3.55,2.82-4.24,4.73
					c-8.67,23.74-17.26,47.5-25.55,71.37c-1.62,4.67-3.67,6.47-8.86,6.35c-15.73-0.37-15.75-0.1-20.92-14.58
					c-9.33-26.09-18.64-52.18-27.95-78.28c-0.73-2.05-1.33-4.15-2.32-7.26c7.15,0,13.69-0.31,20.16,0.23
					c1.52,0.13,3.39,2.95,4.07,4.89c6.82,19.45,13.43,38.98,20.1,58.48c0.71,2.07,1.48,4.12,2.94,8.18
					c8.34-25.04,16.09-48.33,23.56-70.77c16.68,0,32.68-0.76,48.56,0.23c13.29,0.83,20.85,9.04,23.08,21.87
					c2.22,12.72-2.92,23.34-14.23,29.49C442.15,370.63,441.45,371.12,440.39,371.78z"/>
				<path d="M296.23,373.75c-16.31,0-32.4,0-48.84,0c0,9.02,0,17.33,0,26.26c18.13,0,36.01,0,54.44,0c0,5.99,0,11.38,0,17.18
					c-25,0-49.97,0-75.49,0c0-33.09,0-66.03,0-99.49c24.5,0,48.98,0,73.81,0c0,5.82,0,11.24,0,17.17c-17.56,0-34.79,0-52.57,0
					c0,7.21,0,13.93,0,21.32c16.06,0,32.14,0,48.66,0C296.23,362.24,296.23,367.64,296.23,373.75z"/>
				<path d="M102.66,343c-6.57,1.58-13.16,3.16-19.94,4.79c-1.39-2.79-2.32-5.29-3.76-7.44c-4.45-6.66-10.87-9.73-18.79-9.11
					c-8.91,0.7-15.94,5.03-19.17,13.37c-5.24,13.53-5.11,27.49,0.24,40.96c3.43,8.64,10.81,12.95,20.01,13.01
					c9.14,0.05,15.41-4.89,19.09-13.14c1.07-2.39,1.91-4.88,3.06-7.84c6.54,2.04,12.8,4,19,5.93c-1.24,17.2-16.52,31.46-34.75,32.71
					c-30.37,2.09-49.87-15.39-51.33-46.07c-0.88-18.46,2.31-35.44,17.72-47.89C52.59,307.3,95.77,308.87,102.66,343z"/>
				<path d="M128.64,317.46c6.57,0,12.89,0,19.98,0c0,26.99,0,53.74,0,81.12c16.87,0,32.99,0,49.63,0c0,6.03,0,11.43,0,17.26
					c-23.1,0-46.09,0-69.61,0C128.64,383.2,128.64,350.53,128.64,317.46z"/>
				<path d="M410.28,376.32c4.97,0.29,9.05,4.85,8.76,9.79c-0.29,4.97-4.85,9.05-9.79,8.76c-4.96-0.29-9.05-4.85-8.76-9.79
					C400.78,380.12,405.34,376.04,410.28,376.32z"/>
				<g>
					<path class="st2" d="M108.53,128.97c1.85-20.75,9.11-43.33,21.49-64.29c2.64-4.47,5.73-4.92,10.42-2.9
						c33.15,14.3,66.48,28.18,99.54,42.68c5.81,2.55,11.4,1.07,17.05,1.85c15.27,2.1,27.35,15.03,27.28,30.85
						c-0.07,16.15-10.27,28.16-25.45,31.42c-9.08,1.95-17.2-0.34-24.44-5.7c-3.98-2.95-8.58-2.52-12.88-3.17
						c-32.82-4.97-65.75-9.26-98.42-15.17c-1.63-0.3-3.25-0.72-4.89-0.97C109.38,142.23,108.35,141.07,108.53,128.97z"/>
					<path class="st3" d="M154.49,62.51c-10.49-4.11-10.96-4.59-2.69-12.74c30.08-29.67,65.71-42.58,107.86-33.73
						c33.68,7.08,58.88,26.06,76.07,55.73c3.25,5.61,5.53,11.7,7.14,18.03c0.62,2.45,0.68,3.77-2.48,3.57
						c-23.03-1.46-45.34-5.03-63.94-20.45c-10.49-8.7-22.29-12.33-35.79-8.26c-0.5,0.29-1.02,0.33-1.56,0.14
						c-24.72-16.9-50.49-14.91-76.74-4.25C159.82,61.59,157.53,63.53,154.49,62.51z"/>
					<path class="st4" d="M380.54,245.54c-12.64,11.24-27.89,16.53-44.24,18.87c-18.34,2.63-36.43,0.9-54.17-4.5
						c-1.26-0.39-2.6-0.88-3.6,0.56c-2.24,0.42-2.91-1.47-4.01-2.72c-11.58-17.57-28.25-26.71-48.92-27.42
						c-15.38-0.53-28.52,5.7-38.34,17.99c-1.03,1.29-2.09,2.56-3.26,3.81c-0.58,0.11,0.35,0.81,0,0.24
						c-0.16-0.27-0.05-0.34,0.28-0.42c1.52-0.39,3.03-0.83,3.21,1.54c-11.78-0.5-23.24,2.31-34.85,3.54
						c-8.01,0.85-15.35-0.53-22.3-4.45c4.48-6.58,9.47-12.79,14.71-18.74c8.03-9.11,18.71-9.66,29.78-8.33
						c4.93,0.59,9.83,1.5,14.81,1.64c6.48,0.19,12.56-0.82,17.49-5.57c0.92-0.89,2.01-1.82,3.53-1.15
						c10.8,3.44,21.92,5.41,33.19,5.77c6.57,0.21,13.37-0.31,19.74-1.87c15.07-3.67,25.22,3.02,33.96,14.16
						c6.1,7.78,12.73,15.29,23.61,15.92c12.81,0.74,25.55,0.03,38.03-3.33c6.57-1.77,13.12-3.61,19.28-6.6
						C379.69,243.81,380.55,243.82,380.54,245.54z"/>
					<path class="st3" d="M275.49,257.51c1.01,0.99,2.03,1.97,3.04,2.96c7.21,10.54,16.27,17.36,29.95,14.96
						c1.31-0.35,2.79-1.2,3.17,1.11c-5.98,5.23-13.45,6.26-20.86,6.96c-17.42,1.63-34.38-1.61-51.26-5.38
						c-5.82-1.3-11.63-2.7-17.68-2.69c-6.01,0.01-11.49,1.78-16.52,4.87c-3.18,1.95-4.22,0.84-4.88-2.32
						c-1.22-5.82-2.66-11.6-4.02-17.39c-0.41-1.03,0.04-1.99,0.22-2.97c7.21-13.98,18.6-21.55,34.37-22.37
						c2.88-0.15,5.71,0.44,8.21,1.74C251.55,243.41,263.02,251.35,275.49,257.51z"/>
					<path class="st5" d="M270.31,205.58c-0.27,0.01-0.52-0.03-0.77-0.13c-1.45-0.76-3.2-0.85-4.44-2.06
						c-6.42-6.25-14.18-6.12-22.3-4.92c-6.26,0.92-11.91,4.02-18.21,4.73c-4.99,2.34-10.19,0.93-15.2,0.53
						c-26.16-2.08-52.28-3.05-78.38,0.72c-2.36,0.34-5.34,1.59-6.58-2.08c0.97-4.12-3.17-4.66-4.84-6.92
						c-1.12-2.63,0.77-3.61,2.59-4.36c16.88-6.97,34.1-12.42,52.73-10.79c7.59,0.66,14.53,3.76,21.16,7.16
						c7.42,3.8,13.64,2.53,19.84-2.38c4.46-3.53,8.13-7.86,12.36-11.6c2.36-2.08,4.71-4.41,8.36-3.19
						c5.65,2.61,11.46,4.58,17.8,4.38c1.91,0.55,3.82,1.09,5.14,2.76c6.46,8.18,13.29,16.05,20.48,23.6
						c0.69,0.73,1.13,1.64,0.95,2.72C277.87,206.98,274.2,206.91,270.31,205.58z"/>
					<path class="st4" d="M239.61,64.4c0.35,0.09,0.7,0.18,1.06,0.27c6.01,5.85,10.06,13.2,15.04,19.83
						c7.08,9.42,16.6,13.35,27.94,14.03c11.76,0.71,23.56,1.01,34.88,5.01c7.29,2.57,13.96,6.15,20.01,10.92
						c0.02,1.77-0.93,1.67-2.13,1.1c-12.28-3.73-24.71-6.44-37.67-6.1c-5.04,0.14-9.96,0.81-14.57,2.82
						c-2.07,0.9-3.43,1.01-5.23-0.72c-7.73-7.42-17.12-10.66-27.76-10.01c-3.28,0.2-5.52-0.66-7.62-3.35
						c-2.87-3.67-6.38-6.83-11.2-7.93c-0.97-0.22-2.14-0.92-2.86-0.6c-8.47,3.79-14.84-2.17-21.95-4.62
						c-1.08-0.37-2.06-1.01-3.08-1.53c0.23-1.63,1.38-2.61,2.59-3.47c8.67-6.11,17.86-11.26,27.75-15.12
						C236.33,64.35,237.92,63.77,239.61,64.4z"/>
					<path class="st4" d="M236.61,170.28c-3.43,0.26-5.68,2.53-7.96,4.71c-4.44,4.25-8.6,8.81-13.63,12.42
						c-5.7,4.09-11.64,5.46-18.14,1.82c-18.07-10.13-36.79-9.68-55.9-3.43c-6.15,2.01-12.38,3.78-18.31,6.45
						c-1.54,0.69-3.3,0.92-3.09,3.2c-2.46-2.16-0.99-4.44,0.24-6.22c2.1-3.03,3.06-6.21,2.85-9.82c8.77,3.71,17.28,1.59,25.69-1.29
						c12.41-4.25,23.17-11.58,34.1-18.57c14.65,2.05,29.3,4.1,43.95,6.13C230.26,166.22,233.44,168.22,236.61,170.28z"/>
					<path class="st6" d="M182.45,159.55c-3.1,5.31-8.85,7.11-13.67,10.02c-12.56,7.6-25.6,13.88-40.93,13.13
						c-2.7-0.13-4.26-0.92-5.19-3.29c-2.03-4.69-6.08-7.38-10.16-9.94c-8.67-5.44-8.86-10.8-0.96-19.48
						c1.5-1.65,3.14-1.26,5.01-0.96C138.51,152.58,160.48,156.05,182.45,159.55z"/>
					<path class="st4" d="M280.48,202.59c-7.42-6.47-13.5-14.17-19.72-21.72c-1.92-2.33-3.86-4.53-6.35-6.22
						c6.65-0.05,12.81-1.96,18.38-5.42c2.15-1.34,3.65-1.26,5.84-0.3c7.79,3.4,15.96,5.93,24.43,6.25
						c8.9,0.34,17.32-2.56,25.38-6.24c4.15-1.9,8.17-4.09,13.33-6.7c-6.26,10.55-13.9,18.22-22.62,24.83
						c-9.62,7.3-20.35,12.46-32.07,15.49c-1.43,0.37-2.95,0.62-3.81,2.07C281.61,204.95,281.34,203.37,280.48,202.59z"/>
					<path class="st7" d="M239.61,64.4c-12.69,4.6-24.43,10.93-35.15,19.13c-13.34-4.64-26.02-10.89-39.09-16.18
						c-3.68-1.49-7.25-3.22-10.88-4.84c8.55-3.5,16.81-7.87,26.04-9.47c18.46-3.21,36.53-3.03,53.42,6.63
						C236.13,60.93,238.18,62.27,239.61,64.4z"/>
					<path class="st7" d="M210.67,220.43c-9.72,10.8-22.25,8.82-34.24,6.7c-15.32-2.7-27.16,1.08-36.11,14.27
						c-2.73,4.03-4.88,9.06-9.97,11.18c-4.03-2.44-5.16-6.18-4.95-10.64c0.29-6.3,1.36-12.46,3.18-18.49
						c0.26-0.21,0.51-0.53,0.81-0.57c11.01-1.64,19.77-8.11,29.2-13.27c12.06-6.6,24.1-6.58,35.54,1.89
						c4.98,3.69,11.31,4.66,16.45,8.06C210.63,219.85,210.66,220.14,210.67,220.43z"/>
					<path class="st3" d="M210.57,219.56c-6.4-0.77-12.24-3.42-17.26-7.07c-10.42-7.59-21.12-7.94-32.28-2.65
						c-4.62,2.19-8.9,5.1-13.24,7.84c-5.89,3.72-12.27,5.65-19.22,5.78c0.39-4.85-0.75-9.09-4.39-12.61
						c-2.84-2.75-2.98-5.74,0.23-8.48c3.97,3.01,8.21,0.42,11.94-0.15c12.91-1.99,25.83-1.61,38.77-1.71
						c15.44-0.12,30.78,1.29,46.12,2.71c1.42,0.13,2.91-0.42,4.36-0.66c0.26,0.26,0.32,0.47,0.18,0.64
						c-0.12,0.15-0.24,0.22-0.36,0.22C218.67,207.13,214.74,213.46,210.57,219.56z"/>
					<path class="st7" d="M275.49,257.51c-9.39-2.67-17.48-7.87-25.57-13.08c-5.7-3.67-11.24-8.11-18.43-7.92
						c-15.68,0.41-26.84,8.19-34.04,21.93c-2.81,0.58-3.17-3.46-5.86-3.1c-1.37-0.62-2.73-1.24-4.1-1.86
						c-1.01-1.52-2.78-0.68-4.53-1.37c8.56-12.7,19.81-20.85,35.01-22.53c20.02-2.21,36.99,4.46,50.89,18.88
						C271.44,251.14,274.27,253.78,275.49,257.51z"/>
					<path class="st8" d="M360.52,134.52c-20.8,15.71-44.07,22.76-70.15,20.19c-2.81-0.28-3.25-1.12-2.41-3.77
						c1.1-3.46,2.27-7.12,2.22-10.68c-0.05-4.59,1.89-4.43,5.34-3.86c16.14,2.64,32.32,4.32,48.65,1.22
						c4.94-0.94,9.59-2.65,14.34-4.13C359.68,132.86,360.61,132.69,360.52,134.52z"/>
					<path class="st4" d="M225.42,203.41c0.05-0.29,0.12-0.57,0.19-0.86c6.84-2.99,13.87-5.23,21.34-6.08
						c9.19-1.04,16.44,2.52,22.58,8.98C254.77,205.98,240.13,203.9,225.42,203.41z"/>
					<path class="st9" d="M280.48,202.59c0.93,0.68,1.86,1.36,2.79,2.04c7,5.78,15.14,9.11,24.53,10.69
						c-7.73,5.06-29.16-0.85-37.5-9.74C273.68,204.53,277.83,206.12,280.48,202.59z"/>
					<path class="st10" d="M336.41,115.56c0.85-0.09,1.68-0.22,2.13-1.1c2.1,1.09,4.31,2.07,5.71,5.26
						C341.18,118.09,338.79,116.82,336.41,115.56z"/>
					<path class="st11" d="M191.59,255.34c3.24-1.4,3.58,2.69,5.87,3.1c-0.34,0.71-0.68,1.42-1.03,2.13
						C194.82,258.83,193.21,257.09,191.59,255.34z"/>
					<path class="st12" d="M380.54,245.54c-0.44-0.83-1.22-1.01-2.06-1.06c1.41-1.46,3.2-2.18,5.79-3
						C383.27,243.61,382.03,244.68,380.54,245.54z"/>
					<path class="st13" d="M360.52,134.52c-0.42-0.83-1.22-0.92-2.01-1.02c1.2-1.35,2.9-1.29,4.57-2.11
						C362.91,133.48,361.64,133.93,360.52,134.52z"/>
					<path class="st14" d="M311.65,276.53c-0.72-1.32-2.11-0.74-3.17-1.11c1.5-1.44,3.29-0.87,5.07-0.82
						C313.54,275.94,312.34,275.98,311.65,276.53z"/>
					<path class="st15" d="M228.47,137.24c-0.42-13.62,10.84-24.45,24.66-24.65c13.51-0.2,24.4,11.24,24.39,25.02
						c-0.01,13.72-11.03,24.82-24.57,24.88C239.52,162.56,226.84,150.07,228.47,137.24z"/>
					<path class="st16" d="M252.76,158.53c-11.15,1-21.13-9.87-21.2-21.72c-0.06-11.21,10.27-21.28,21.45-21.29
						c12.17-0.01,21.16,9.56,21.6,22.01C274.97,147.96,263.85,160.08,252.76,158.53z"/>
					<path class="st17" d="M271.49,137.26c-0.06,10.29-8.47,18.39-18.93,18.24c-9.08-0.13-17.92-8.95-18-17.94
						c-0.08-9.8,9.2-19.23,18.68-18.99C263.11,118.83,271.55,127.47,271.49,137.26z"/>
				</g>
			</g>
		</g>
		<rect class="st18" width="484" height="428"/>
	</g>
	<g>
		<defs>
			<rect id="SVGID_1_" x="592.5" y="-0.5" width="308" height="298"/>
		</defs>
		<clipPath id="SVGID_2_">
			<use xlink:href="#SVGID_1_"  style="overflow:visible;"/>
		</clipPath>
		<g class="st19">
			<path class="st2" d="M612.03,129.47c1.85-20.75,9.11-43.33,21.49-64.29c2.64-4.47,5.73-4.92,10.42-2.9
				c33.15,14.3,66.48,28.18,99.54,42.68c5.81,2.55,11.4,1.07,17.05,1.85c15.27,2.1,27.35,15.03,27.28,30.85
				c-0.07,16.15-10.27,28.16-25.45,31.42c-9.08,1.95-17.2-0.34-24.44-5.7c-3.98-2.95-8.58-2.52-12.88-3.17
				c-32.82-4.97-65.75-9.26-98.42-15.17c-1.63-0.3-3.25-0.72-4.89-0.97C612.88,142.73,611.85,141.57,612.03,129.47z"/>
			<path class="st3" d="M657.99,63.01c-10.49-4.11-10.96-4.59-2.69-12.74c30.08-29.67,65.71-42.58,107.86-33.73
				c33.68,7.08,58.88,26.06,76.07,55.73c3.25,5.61,5.53,11.7,7.14,18.03c0.62,2.45,0.68,3.77-2.48,3.57
				c-23.03-1.46-45.34-5.03-63.94-20.45c-10.49-8.7-22.29-12.33-35.79-8.26c-0.5,0.29-1.02,0.33-1.56,0.14
				c-24.72-16.9-50.49-14.91-76.74-4.25C663.32,62.09,661.03,64.03,657.99,63.01z"/>
			<path class="st4" d="M884.04,246.04c-12.64,11.24-27.89,16.53-44.24,18.87c-18.34,2.63-36.43,0.9-54.17-4.5
				c-1.26-0.39-2.6-0.88-3.6,0.56c-2.24,0.42-2.91-1.47-4.01-2.72c-11.58-17.57-28.25-26.71-48.92-27.42
				c-15.38-0.53-28.52,5.7-38.34,17.99c-1.03,1.29-2.09,2.56-3.26,3.81c-0.58,0.11,0.35,0.81,0,0.24c-0.16-0.27-0.05-0.34,0.28-0.42
				c1.52-0.39,3.03-0.83,3.21,1.54c-11.78-0.5-23.24,2.31-34.85,3.54c-8.01,0.85-15.35-0.53-22.3-4.45
				c4.48-6.58,9.47-12.79,14.71-18.74c8.03-9.11,18.71-9.66,29.78-8.33c4.93,0.59,9.83,1.5,14.81,1.64
				c6.48,0.19,12.56-0.82,17.49-5.57c0.92-0.89,2.01-1.82,3.53-1.15c10.8,3.44,21.92,5.41,33.19,5.77
				c6.57,0.21,13.37-0.31,19.74-1.87c15.07-3.67,25.22,3.02,33.96,14.16c6.1,7.78,12.73,15.29,23.61,15.92
				c12.81,0.74,25.55,0.03,38.03-3.33c6.57-1.77,13.12-3.61,19.28-6.6C883.19,244.31,884.05,244.32,884.04,246.04z"/>
			<path class="st3" d="M778.99,258.01c1.01,0.99,2.03,1.97,3.04,2.96c7.21,10.54,16.27,17.36,29.95,14.96
				c1.31-0.35,2.79-1.2,3.17,1.11c-5.98,5.23-13.45,6.26-20.86,6.96c-17.42,1.63-34.38-1.61-51.26-5.38
				c-5.82-1.3-11.63-2.7-17.68-2.69c-6.01,0.01-11.49,1.78-16.52,4.87c-3.18,1.95-4.22,0.84-4.88-2.32
				c-1.22-5.82-2.66-11.6-4.02-17.39c-0.41-1.03,0.04-1.99,0.22-2.97c7.21-13.98,18.6-21.55,34.37-22.37
				c2.88-0.15,5.71,0.44,8.21,1.74C755.05,243.91,766.52,251.85,778.99,258.01z"/>
			<path class="st5" d="M773.81,206.08c-0.27,0.01-0.52-0.03-0.77-0.13c-1.45-0.76-3.2-0.85-4.44-2.06
				c-6.42-6.25-14.18-6.12-22.3-4.92c-6.26,0.92-11.91,4.02-18.21,4.73c-4.99,2.34-10.19,0.93-15.2,0.53
				c-26.16-2.08-52.28-3.05-78.38,0.72c-2.36,0.34-5.34,1.59-6.58-2.08c0.97-4.12-3.17-4.66-4.84-6.92
				c-1.12-2.63,0.77-3.61,2.59-4.36c16.88-6.97,34.1-12.42,52.73-10.79c7.59,0.66,14.53,3.76,21.16,7.16
				c7.42,3.8,13.64,2.53,19.84-2.38c4.46-3.53,8.13-7.86,12.36-11.6c2.36-2.08,4.71-4.41,8.36-3.19c5.65,2.61,11.46,4.58,17.8,4.38
				c1.91,0.55,3.82,1.09,5.14,2.76c6.46,8.18,13.29,16.05,20.48,23.6c0.69,0.73,1.13,1.64,0.95,2.72
				C781.37,207.48,777.7,207.41,773.81,206.08z"/>
			<path class="st4" d="M743.11,64.9c0.35,0.09,0.7,0.18,1.06,0.27c6.01,5.85,10.06,13.2,15.04,19.83
				c7.08,9.42,16.6,13.35,27.94,14.03c11.76,0.71,23.56,1.01,34.88,5.01c7.29,2.57,13.96,6.15,20.01,10.92
				c0.02,1.77-0.93,1.67-2.13,1.1c-12.28-3.73-24.71-6.44-37.67-6.1c-5.04,0.14-9.96,0.81-14.57,2.82c-2.07,0.9-3.43,1.01-5.23-0.72
				c-7.73-7.42-17.12-10.66-27.76-10.01c-3.28,0.2-5.52-0.66-7.62-3.35c-2.87-3.67-6.38-6.83-11.2-7.93
				c-0.97-0.22-2.14-0.92-2.86-0.6c-8.47,3.79-14.84-2.17-21.95-4.62c-1.08-0.37-2.06-1.01-3.08-1.53c0.23-1.63,1.38-2.61,2.59-3.47
				c8.67-6.11,17.86-11.26,27.75-15.12C739.83,64.85,741.42,64.27,743.11,64.9z"/>
			<path class="st4" d="M740.11,170.78c-3.43,0.26-5.68,2.53-7.96,4.71c-4.44,4.25-8.6,8.81-13.63,12.42
				c-5.7,4.09-11.64,5.46-18.14,1.82c-18.07-10.13-36.79-9.68-55.9-3.43c-6.15,2.01-12.38,3.78-18.31,6.45
				c-1.54,0.69-3.3,0.92-3.09,3.2c-2.46-2.16-0.99-4.44,0.24-6.22c2.1-3.03,3.06-6.21,2.85-9.82c8.77,3.71,17.28,1.59,25.69-1.29
				c12.41-4.25,23.17-11.58,34.1-18.57c14.65,2.05,29.3,4.1,43.95,6.13C733.76,166.72,736.94,168.72,740.11,170.78z"/>
			<path class="st6" d="M685.95,160.05c-3.1,5.31-8.85,7.11-13.67,10.02c-12.56,7.6-25.6,13.88-40.93,13.13
				c-2.7-0.13-4.26-0.92-5.19-3.29c-2.03-4.69-6.08-7.38-10.16-9.94c-8.67-5.44-8.86-10.8-0.96-19.48c1.5-1.65,3.14-1.26,5.01-0.96
				C642.01,153.08,663.98,156.55,685.95,160.05z"/>
			<path class="st4" d="M783.98,203.09c-7.42-6.47-13.5-14.17-19.72-21.72c-1.92-2.33-3.86-4.53-6.35-6.22
				c6.65-0.05,12.81-1.96,18.38-5.42c2.15-1.34,3.65-1.26,5.84-0.3c7.79,3.4,15.96,5.93,24.43,6.25c8.9,0.34,17.32-2.56,25.38-6.24
				c4.15-1.9,8.17-4.09,13.33-6.7c-6.26,10.55-13.9,18.22-22.62,24.83c-9.62,7.3-20.35,12.46-32.07,15.49
				c-1.43,0.37-2.95,0.62-3.81,2.07C785.11,205.45,784.84,203.87,783.98,203.09z"/>
			<path class="st7" d="M743.11,64.9c-12.69,4.6-24.43,10.93-35.15,19.13c-13.34-4.64-26.02-10.89-39.09-16.18
				c-3.68-1.49-7.25-3.22-10.88-4.84c8.55-3.5,16.81-7.87,26.04-9.47c18.46-3.21,36.53-3.03,53.42,6.63
				C739.63,61.43,741.68,62.77,743.11,64.9z"/>
			<path class="st7" d="M714.17,220.93c-9.72,10.8-22.25,8.82-34.24,6.7c-15.32-2.7-27.16,1.08-36.11,14.27
				c-2.73,4.03-4.88,9.06-9.97,11.18c-4.03-2.44-5.16-6.18-4.95-10.64c0.29-6.3,1.36-12.46,3.18-18.49
				c0.26-0.21,0.51-0.53,0.81-0.57c11.01-1.64,19.77-8.11,29.2-13.27c12.06-6.6,24.1-6.58,35.54,1.89
				c4.98,3.69,11.31,4.66,16.45,8.06C714.13,220.35,714.16,220.64,714.17,220.93z"/>
			<path class="st3" d="M714.07,220.06c-6.4-0.77-12.24-3.42-17.26-7.07c-10.42-7.59-21.12-7.94-32.28-2.65
				c-4.62,2.19-8.9,5.1-13.24,7.84c-5.89,3.72-12.27,5.65-19.22,5.78c0.39-4.85-0.75-9.09-4.39-12.61
				c-2.84-2.75-2.98-5.74,0.23-8.48c3.97,3.01,8.21,0.42,11.94-0.15c12.91-1.99,25.83-1.61,38.77-1.71
				c15.44-0.12,30.78,1.29,46.12,2.71c1.42,0.13,2.91-0.42,4.36-0.66c0.26,0.26,0.32,0.47,0.18,0.64c-0.12,0.15-0.24,0.22-0.36,0.22
				C722.17,207.63,718.24,213.96,714.07,220.06z"/>
			<path class="st7" d="M778.99,258.01c-9.39-2.67-17.48-7.87-25.57-13.08c-5.7-3.67-11.24-8.11-18.43-7.92
				c-15.68,0.41-26.84,8.19-34.04,21.93c-2.81,0.58-3.17-3.46-5.86-3.1c-1.37-0.62-2.73-1.24-4.1-1.86
				c-1.01-1.52-2.78-0.68-4.53-1.37c8.56-12.7,19.81-20.85,35.01-22.53c20.02-2.21,36.99,4.46,50.89,18.88
				C774.94,251.64,777.77,254.28,778.99,258.01z"/>
			<path class="st8" d="M864.02,135.02c-20.8,15.71-44.07,22.76-70.15,20.19c-2.81-0.28-3.25-1.12-2.41-3.77
				c1.1-3.46,2.27-7.12,2.22-10.68c-0.05-4.59,1.89-4.43,5.34-3.86c16.14,2.64,32.32,4.32,48.65,1.22
				c4.94-0.94,9.59-2.65,14.34-4.13C863.18,133.36,864.11,133.19,864.02,135.02z"/>
			<path class="st4" d="M728.92,203.91c0.05-0.29,0.12-0.57,0.19-0.86c6.84-2.99,13.87-5.23,21.34-6.08
				c9.19-1.04,16.44,2.52,22.58,8.98C758.27,206.48,743.63,204.4,728.92,203.91z"/>
			<path class="st9" d="M783.98,203.09c0.93,0.68,1.86,1.36,2.79,2.04c7,5.78,15.14,9.11,24.53,10.69
				c-7.73,5.06-29.16-0.85-37.5-9.74C777.18,205.03,781.33,206.62,783.98,203.09z"/>
			<path class="st10" d="M839.91,116.06c0.85-0.09,1.68-0.22,2.13-1.1c2.1,1.09,4.31,2.07,5.71,5.26
				C844.68,118.59,842.29,117.32,839.91,116.06z"/>
			<path class="st11" d="M695.09,255.84c3.24-1.4,3.58,2.69,5.87,3.1c-0.34,0.71-0.68,1.42-1.03,2.13
				C698.32,259.33,696.71,257.59,695.09,255.84z"/>
			<path class="st12" d="M884.04,246.04c-0.44-0.83-1.22-1.01-2.06-1.06c1.41-1.46,3.2-2.18,5.79-3
				C886.77,244.11,885.53,245.18,884.04,246.04z"/>
			<path class="st13" d="M864.02,135.02c-0.42-0.83-1.22-0.92-2.01-1.02c1.2-1.35,2.9-1.29,4.57-2.11
				C866.41,133.98,865.14,134.43,864.02,135.02z"/>
			<path class="st14" d="M815.15,277.03c-0.72-1.32-2.11-0.74-3.17-1.11c1.5-1.44,3.29-0.87,5.07-0.82
				C817.04,276.44,815.84,276.48,815.15,277.03z"/>
			<path class="st15" d="M731.97,137.74c-0.42-13.62,10.84-24.45,24.66-24.65c13.51-0.2,24.4,11.24,24.39,25.02
				c-0.01,13.72-11.03,24.82-24.57,24.88C743.02,163.06,730.34,150.57,731.97,137.74z"/>
			<path class="st16" d="M756.26,159.03c-11.15,1-21.13-9.87-21.2-21.72c-0.06-11.21,10.27-21.28,21.45-21.29
				c12.17-0.01,21.16,9.56,21.6,22.01C778.47,148.46,767.35,160.58,756.26,159.03z"/>
			<path class="st17" d="M774.99,137.76c-0.06,10.29-8.47,18.39-18.93,18.24c-9.08-0.13-17.92-8.95-18-17.94
				c-0.08-9.8,9.2-19.23,18.68-18.99C766.61,119.33,775.05,127.97,774.99,137.76z"/>
		</g>
	</g>
	<g>
		<defs>
			<rect id="SVGID_3_" x="1012.5" y="306.5" width="476" height="120"/>
		</defs>
		<clipPath id="SVGID_4_">
			<use xlink:href="#SVGID_3_"  style="overflow:visible;"/>
		</clipPath>
		<path class="st20" d="M1450.39,372.78c1.06-0.66,1.77-1.15,2.51-1.55c11.32-6.15,16.45-16.77,14.23-29.49
			c-2.23-12.83-9.79-21.04-23.08-21.87c-15.88-0.99-31.88-0.23-48.56-0.23c-7.47,22.44-15.23,45.73-23.56,70.77
			c-1.46-4.06-2.24-6.11-2.94-8.18c-6.68-19.5-13.28-39.03-20.1-58.48c-0.68-1.94-2.56-4.76-4.07-4.89
			c-6.47-0.55-13.01-0.23-20.16-0.23c0.99,3.11,1.59,5.21,2.32,7.26c9.3,26.1,18.62,52.19,27.95,78.28
			c5.18,14.48,5.19,14.21,20.92,14.58c5.19,0.12,7.24-1.68,8.86-6.35c8.29-23.87,16.88-47.64,25.55-71.37
			c0.7-1.91,2.72-4.65,4.24-4.73c7.07-0.36,14.24-0.41,21.26,0.39c6.76,0.78,10.38,5.65,10.2,11.87
			c-0.19,6.43-4.5,10.73-11.57,11.38c-3.86,0.35-7.74,0.46-12.43,0.73c11.25,17.13,21.84,33.25,32.42,49.37
			c5.74,8.74,10.12,10.54,20.26,8.26c2.23-0.5,4.42-1.14,7.19-1.85C1471.18,401.68,1460.84,387.31,1450.39,372.78z"/>
		<path class="st20" d="M1306.23,374.75c0-6.11,0-11.5,0-17.56c-16.52,0-32.6,0-48.66,0c0-7.39,0-14.11,0-21.32
			c17.78,0,35.01,0,52.57,0c0-5.94,0-11.35,0-17.17c-24.83,0-49.31,0-73.81,0c0,33.45,0,66.4,0,99.49c25.52,0,50.49,0,75.49,0
			c0-5.81,0-11.19,0-17.18c-18.43,0-36.31,0-54.44,0c0-8.93,0-17.24,0-26.26C1273.83,374.75,1289.92,374.75,1306.23,374.75z"/>
		<path class="st20" d="M1112.66,344c-6.89-34.13-50.07-35.71-68.63-20.71c-15.41,12.45-18.6,29.43-17.72,47.89
			c1.47,30.67,20.97,48.15,51.33,46.07c18.23-1.25,33.52-15.51,34.75-32.71c-6.2-1.94-12.46-3.89-19-5.93
			c-1.15,2.96-2,5.45-3.06,7.84c-3.68,8.25-9.95,13.19-19.09,13.14c-9.2-0.05-16.58-4.37-20.01-13.01
			c-5.35-13.47-5.47-27.43-0.24-40.96c3.23-8.34,10.26-12.67,19.17-13.37c7.92-0.62,14.34,2.45,18.79,9.11
			c1.44,2.16,2.37,4.65,3.76,7.44C1099.5,347.16,1106.09,345.58,1112.66,344z"/>
		<path class="st20" d="M1138.64,318.46c0,33.06,0,65.74,0,98.38c23.52,0,46.51,0,69.61,0c0-5.83,0-11.22,0-17.26
			c-16.63,0-32.75,0-49.63,0c0-27.38,0-54.13,0-81.12C1151.53,318.46,1145.21,318.46,1138.64,318.46z"/>
		<path class="st20" d="M1420.28,377.32c-4.94-0.29-9.5,3.79-9.79,8.76c-0.29,4.94,3.79,9.5,8.76,9.79c4.94,0.29,9.5-3.79,9.79-8.76
			C1429.33,382.18,1425.25,377.61,1420.28,377.32z"/>
		<path class="st21" d="M1450.39,372.78c10.45,14.53,20.79,28.9,31.41,43.66c-2.77,0.72-4.96,1.35-7.19,1.85
			c-10.13,2.29-14.52,0.48-20.26-8.26c-10.58-16.12-21.17-32.24-32.42-49.37c4.69-0.27,8.57-0.38,12.43-0.73
			c7.08-0.64,11.38-4.95,11.57-11.38c0.18-6.22-3.44-11.1-10.2-11.87c-7.02-0.81-14.19-0.75-21.26-0.39
			c-1.52,0.08-3.55,2.82-4.24,4.73c-8.67,23.74-17.26,47.5-25.55,71.37c-1.62,4.67-3.67,6.47-8.86,6.35
			c-15.73-0.37-15.75-0.1-20.92-14.58c-9.33-26.09-18.64-52.18-27.95-78.28c-0.73-2.05-1.33-4.15-2.32-7.26
			c7.15,0,13.69-0.31,20.16,0.23c1.52,0.13,3.39,2.95,4.07,4.89c6.82,19.45,13.43,38.98,20.1,58.48c0.71,2.07,1.48,4.12,2.94,8.18
			c8.34-25.04,16.09-48.33,23.56-70.77c16.68,0,32.68-0.76,48.56,0.23c13.29,0.83,20.85,9.04,23.08,21.87
			c2.22,12.72-2.92,23.34-14.23,29.49C1452.15,371.63,1451.45,372.12,1450.39,372.78z"/>
		<path class="st21" d="M1306.23,374.75c-16.31,0-32.4,0-48.84,0c0,9.02,0,17.33,0,26.26c18.13,0,36.01,0,54.44,0
			c0,5.99,0,11.38,0,17.18c-25,0-49.97,0-75.49,0c0-33.09,0-66.03,0-99.49c24.5,0,48.98,0,73.81,0c0,5.82,0,11.24,0,17.17
			c-17.56,0-34.79,0-52.57,0c0,7.21,0,13.93,0,21.32c16.06,0,32.14,0,48.66,0C1306.23,363.24,1306.23,368.64,1306.23,374.75z"/>
		<path class="st21" d="M1112.66,344c-6.57,1.58-13.16,3.16-19.94,4.79c-1.39-2.79-2.32-5.29-3.76-7.44
			c-4.45-6.66-10.87-9.73-18.79-9.11c-8.91,0.7-15.94,5.03-19.17,13.37c-5.24,13.53-5.11,27.49,0.24,40.96
			c3.43,8.64,10.81,12.95,20.01,13.01c9.14,0.05,15.41-4.89,19.09-13.14c1.07-2.39,1.92-4.88,3.06-7.84c6.54,2.04,12.8,4,19,5.93
			c-1.24,17.2-16.52,31.46-34.75,32.71c-30.37,2.09-49.87-15.39-51.33-46.07c-0.88-18.46,2.31-35.44,17.72-47.89
			C1062.59,308.3,1105.77,309.87,1112.66,344z"/>
		<path class="st21" d="M1138.64,318.46c6.57,0,12.89,0,19.98,0c0,26.99,0,53.74,0,81.12c16.87,0,32.99,0,49.63,0
			c0,6.03,0,11.43,0,17.26c-23.1,0-46.09,0-69.61,0C1138.64,384.2,1138.64,351.53,1138.64,318.46z"/>
		<path class="st21" d="M1420.28,377.32c4.97,0.29,9.05,4.85,8.76,9.79c-0.29,4.97-4.85,9.05-9.79,8.76
			c-4.96-0.29-9.05-4.85-8.76-9.79C1410.78,381.12,1415.34,377.04,1420.28,377.32z"/>
	</g>
</g>
</svg>
