<?xml version="1.0" encoding="utf-8"?>
<!-- Generator: Adobe Illustrator 23.0.3, SVG Export Plug-In . SVG Version: 6.00 Build 0)  -->
<svg version="1.1" xmlns="http://www.w3.org/2000/svg" xmlns:xlink="http://www.w3.org/1999/xlink" x="0px" y="0px"
	 viewBox="0 0 308 298" style="enable-background:new 0 0 308 298;" xml:space="preserve">
<style type="text/css">
	.st0{display:none;}
	.st1{fill:#FFFFFF;}
	.st2{fill:#242528;}
	.st3{fill:#4191DC;}
	.st4{fill:#A2C6ED;}
	.st5{fill:#3A8BDA;}
	.st6{fill:#3A8CDA;}
	.st7{fill:#8DBCEA;}
	.st8{fill:#4192DC;}
	.st9{fill:#4493DD;}
	.st10{fill:#B6D3F0;}
	.st11{fill:#6AA9E3;}
	.st12{fill:#BBD6F1;}
	.st13{fill:#67A7E2;}
	.st14{fill:#BFDAF3;}
	.st15{fill:#C9C9C9;}
	.st16{fill:#A9A9AA;}
	.st17{fill:#37383F;}
	.st18{fill:none;}
	.st19{clip-path:url(#SVGID_2_);}
	.st20{clip-path:url(#SVGID_4_);fill:#FFFFFF;}
	.st21{clip-path:url(#SVGID_4_);}
</style>
<g id="Layer_2" class="st0">
</g>
<g id="Layer_1">
	<g>
		<g>
			<g>
				<path class="st1" d="M-152.11,372.28c1.06-0.66,1.77-1.15,2.51-1.55c11.32-6.15,16.45-16.77,14.23-29.49
					c-2.23-12.83-9.79-21.04-23.08-21.87c-15.88-0.99-31.88-0.23-48.56-0.23c-7.47,22.44-15.23,45.73-23.56,70.77
					c-1.46-4.06-2.24-6.11-2.94-8.18c-6.68-19.5-13.28-39.03-20.1-58.48c-0.68-1.94-2.56-4.76-4.07-4.89
					c-6.47-0.55-13.01-0.23-20.16-0.23c0.99,3.11,1.59,5.21,2.32,7.26c9.3,26.1,18.62,52.19,27.95,78.28
					c5.18,14.48,5.19,14.21,20.92,14.58c5.19,0.12,7.24-1.68,8.86-6.35c8.29-23.87,16.88-47.64,25.55-71.37
					c0.7-1.91,2.72-4.65,4.24-4.73c7.07-0.36,14.24-0.41,21.26,0.39c6.76,0.78,10.38,5.65,10.2,11.87
					c-0.19,6.43-4.5,10.73-11.57,11.38c-3.86,0.35-7.74,0.46-12.43,0.73c11.25,17.13,21.84,33.25,32.42,49.37
					c5.74,8.74,10.12,10.54,20.26,8.26c2.23-0.5,4.42-1.14,7.19-1.85C-131.32,401.18-141.66,386.81-152.11,372.28z"/>
				<path class="st1" d="M-296.27,374.25c0-6.11,0-11.5,0-17.56c-16.52,0-32.6,0-48.66,0c0-7.39,0-14.11,0-21.32
					c17.78,0,35.01,0,52.57,0c0-5.94,0-11.35,0-17.17c-24.83,0-49.31,0-73.81,0c0,33.45,0,66.4,0,99.49c25.52,0,50.49,0,75.49,0
					c0-5.81,0-11.19,0-17.18c-18.43,0-36.31,0-54.44,0c0-8.93,0-17.24,0-26.26C-328.67,374.25-312.58,374.25-296.27,374.25z"/>
				<path class="st1" d="M-489.84,343.5c-6.89-34.13-50.07-35.71-68.63-20.71c-15.41,12.45-18.6,29.43-17.72,47.89
					c1.47,30.67,20.97,48.15,51.33,46.07c18.23-1.25,33.52-15.51,34.75-32.71c-6.2-1.94-12.46-3.89-19-5.93
					c-1.15,2.96-2,5.45-3.06,7.84c-3.68,8.25-9.95,13.19-19.09,13.14c-9.2-0.05-16.58-4.37-20.01-13.01
					c-5.35-13.47-5.47-27.43-0.24-40.96c3.23-8.34,10.26-12.67,19.17-13.37c7.92-0.62,14.34,2.45,18.79,9.11
					c1.44,2.16,2.37,4.65,3.76,7.44C-503,346.66-496.41,345.08-489.84,343.5z"/>
				<path class="st1" d="M-463.86,317.96c0,33.06,0,65.74,0,98.38c23.52,0,46.51,0,69.61,0c0-5.83,0-11.22,0-17.26
					c-16.63,0-32.75,0-49.63,0c0-27.38,0-54.13,0-81.12C-450.97,317.96-457.29,317.96-463.86,317.96z"/>
				<path class="st1" d="M-182.22,376.82c-4.94-0.29-9.5,3.79-9.79,8.76c-0.29,4.94,3.79,9.5,8.76,9.79
					c4.94,0.29,9.5-3.79,9.79-8.76C-173.17,381.68-177.25,377.11-182.22,376.82z"/>
				<path d="M-152.11,372.28c10.45,14.53,20.79,28.9,31.41,43.66c-2.77,0.72-4.96,1.35-7.19,1.85c-10.13,2.29-14.52,0.48-20.26-8.26
					c-10.58-16.12-21.17-32.24-32.42-49.37c4.69-0.27,8.57-0.38,12.43-0.73c7.08-0.64,11.38-4.95,11.57-11.38
					c0.18-6.22-3.44-11.1-10.2-11.87c-7.02-0.81-14.19-0.75-21.26-0.39c-1.52,0.08-3.55,2.82-4.24,4.73
					c-8.67,23.74-17.26,47.5-25.55,71.37c-1.62,4.67-3.67,6.47-8.86,6.35c-15.73-0.37-15.75-0.1-20.92-14.58
					c-9.33-26.09-18.64-52.18-27.95-78.28c-0.73-2.05-1.33-4.15-2.32-7.26c7.15,0,13.69-0.31,20.16,0.23
					c1.52,0.13,3.39,2.95,4.07,4.89c6.82,19.45,13.43,38.98,20.1,58.48c0.71,2.07,1.48,4.12,2.94,8.18
					c8.34-25.04,16.09-48.33,23.56-70.77c16.68,0,32.68-0.76,48.56,0.23c13.29,0.83,20.85,9.04,23.08,21.87
					c2.22,12.72-2.92,23.34-14.23,29.49C-150.35,371.13-151.05,371.62-152.11,372.28z"/>
				<path d="M-296.27,374.25c-16.31,0-32.4,0-48.84,0c0,9.02,0,17.33,0,26.26c18.13,0,36.01,0,54.44,0c0,5.99,0,11.38,0,17.18
					c-25,0-49.97,0-75.49,0c0-33.09,0-66.03,0-99.49c24.5,0,48.98,0,73.81,0c0,5.82,0,11.24,0,17.17c-17.56,0-34.79,0-52.57,0
					c0,7.21,0,13.93,0,21.32c16.06,0,32.14,0,48.66,0C-296.27,362.74-296.27,368.14-296.27,374.25z"/>
				<path d="M-489.84,343.5c-6.57,1.58-13.16,3.16-19.94,4.79c-1.39-2.79-2.32-5.29-3.76-7.44c-4.45-6.66-10.87-9.73-18.79-9.11
					c-8.91,0.7-15.94,5.03-19.17,13.37c-5.24,13.53-5.11,27.49,0.24,40.96c3.43,8.64,10.81,12.95,20.01,13.01
					c9.14,0.05,15.41-4.89,19.09-13.14c1.07-2.39,1.91-4.88,3.06-7.84c6.54,2.04,12.8,4,19,5.93c-1.24,17.2-16.52,31.46-34.75,32.71
					c-30.37,2.09-49.87-15.39-51.33-46.07c-0.88-18.46,2.31-35.44,17.72-47.89C-539.91,307.8-496.73,309.37-489.84,343.5z"/>
				<path d="M-463.86,317.96c6.57,0,12.89,0,19.98,0c0,26.99,0,53.74,0,81.12c16.87,0,32.99,0,49.63,0c0,6.03,0,11.43,0,17.26
					c-23.1,0-46.09,0-69.61,0C-463.86,383.7-463.86,351.03-463.86,317.96z"/>
				<path d="M-182.22,376.82c4.97,0.29,9.05,4.85,8.76,9.79c-0.29,4.97-4.85,9.05-9.79,8.76c-4.96-0.29-9.05-4.85-8.76-9.79
					C-191.72,380.62-187.16,376.54-182.22,376.82z"/>
				<g>
					<path class="st2" d="M-483.97,129.47c1.85-20.75,9.11-43.33,21.49-64.29c2.64-4.47,5.73-4.92,10.42-2.9
						c33.15,14.3,66.48,28.18,99.54,42.68c5.81,2.55,11.4,1.07,17.05,1.85c15.27,2.1,27.35,15.03,27.28,30.85
						c-0.07,16.15-10.27,28.16-25.45,31.42c-9.08,1.95-17.2-0.34-24.44-5.7c-3.98-2.95-8.58-2.52-12.88-3.17
						c-32.82-4.97-65.75-9.26-98.42-15.17c-1.63-0.3-3.25-0.72-4.89-0.97C-483.12,142.73-484.15,141.57-483.97,129.47z"/>
					<path class="st3" d="M-438.01,63.01c-10.49-4.11-10.96-4.59-2.69-12.74c30.08-29.67,65.71-42.58,107.86-33.73
						c33.68,7.08,58.88,26.06,76.07,55.73c3.25,5.61,5.53,11.7,7.14,18.03c0.62,2.45,0.68,3.77-2.48,3.57
						c-23.03-1.46-45.34-5.03-63.94-20.45c-10.49-8.7-22.29-12.33-35.79-8.26c-0.5,0.29-1.02,0.33-1.56,0.14
						c-24.72-16.9-50.49-14.91-76.74-4.25C-432.68,62.09-434.97,64.03-438.01,63.01z"/>
					<path class="st4" d="M-211.96,246.04c-12.64,11.24-27.89,16.53-44.24,18.87c-18.34,2.63-36.43,0.9-54.17-4.5
						c-1.26-0.39-2.6-0.88-3.6,0.56c-2.24,0.42-2.91-1.47-4.01-2.72c-11.58-17.57-28.25-26.71-48.92-27.42
						c-15.38-0.53-28.52,5.7-38.34,17.99c-1.03,1.29-2.09,2.56-3.26,3.81c-0.58,0.11,0.35,0.81,0,0.24
						c-0.16-0.27-0.05-0.34,0.28-0.42c1.52-0.39,3.03-0.83,3.21,1.54c-11.78-0.5-23.24,2.31-34.85,3.54
						c-8.01,0.85-15.35-0.53-22.3-4.45c4.48-6.58,9.47-12.79,14.71-18.74c8.03-9.11,18.71-9.66,29.78-8.33
						c4.93,0.59,9.83,1.5,14.81,1.64c6.48,0.19,12.56-0.82,17.49-5.57c0.92-0.89,2.01-1.82,3.53-1.15
						c10.8,3.44,21.92,5.41,33.19,5.77c6.57,0.21,13.37-0.31,19.74-1.87c15.07-3.67,25.22,3.02,33.96,14.16
						c6.1,7.78,12.73,15.29,23.61,15.92c12.81,0.74,25.55,0.03,38.03-3.33c6.57-1.77,13.12-3.61,19.28-6.6
						C-212.81,244.31-211.95,244.32-211.96,246.04z"/>
					<path class="st3" d="M-317.01,258.01c1.01,0.99,2.03,1.97,3.04,2.96c7.21,10.54,16.27,17.36,29.95,14.96
						c1.31-0.35,2.79-1.2,3.17,1.11c-5.98,5.23-13.45,6.26-20.86,6.96c-17.42,1.63-34.38-1.61-51.26-5.38
						c-5.82-1.3-11.63-2.7-17.68-2.69c-6.01,0.01-11.49,1.78-16.52,4.87c-3.18,1.95-4.22,0.84-4.88-2.32
						c-1.22-5.82-2.66-11.6-4.02-17.39c-0.41-1.03,0.04-1.99,0.22-2.97c7.21-13.98,18.6-21.55,34.37-22.37
						c2.88-0.15,5.71,0.44,8.21,1.74C-340.95,243.91-329.48,251.85-317.01,258.01z"/>
					<path class="st5" d="M-322.19,206.08c-0.27,0.01-0.52-0.03-0.77-0.13c-1.45-0.76-3.2-0.85-4.44-2.06
						c-6.42-6.25-14.18-6.12-22.3-4.92c-6.26,0.92-11.91,4.02-18.21,4.73c-4.99,2.34-10.19,0.93-15.2,0.53
						c-26.16-2.08-52.28-3.05-78.38,0.72c-2.36,0.34-5.34,1.59-6.58-2.08c0.97-4.12-3.17-4.66-4.84-6.92
						c-1.12-2.63,0.77-3.61,2.59-4.36c16.88-6.97,34.1-12.42,52.73-10.79c7.59,0.66,14.53,3.76,21.16,7.16
						c7.42,3.8,13.64,2.53,19.84-2.38c4.46-3.53,8.13-7.86,12.36-11.6c2.36-2.08,4.71-4.41,8.36-3.19
						c5.65,2.61,11.46,4.58,17.8,4.38c1.91,0.55,3.82,1.09,5.14,2.76c6.46,8.18,13.29,16.05,20.48,23.6
						c0.69,0.73,1.13,1.64,0.95,2.72C-314.63,207.48-318.3,207.41-322.19,206.08z"/>
					<path class="st4" d="M-352.89,64.9c0.35,0.09,0.7,0.18,1.06,0.27c6.01,5.85,10.06,13.2,15.04,19.83
						c7.08,9.42,16.6,13.35,27.94,14.03c11.76,0.71,23.56,1.01,34.88,5.01c7.29,2.57,13.96,6.15,20.01,10.92
						c0.02,1.77-0.93,1.67-2.13,1.1c-12.28-3.73-24.71-6.44-37.67-6.1c-5.04,0.14-9.96,0.81-14.57,2.82
						c-2.07,0.9-3.43,1.01-5.23-0.72c-7.73-7.42-17.12-10.66-27.76-10.01c-3.28,0.2-5.52-0.66-7.62-3.35
						c-2.87-3.67-6.38-6.83-11.2-7.93c-0.97-0.22-2.14-0.92-2.86-0.6c-8.47,3.79-14.84-2.17-21.95-4.62
						c-1.08-0.37-2.06-1.01-3.08-1.53c0.23-1.63,1.38-2.61,2.59-3.47c8.67-6.11,17.86-11.26,27.75-15.12
						C-356.17,64.85-354.58,64.27-352.89,64.9z"/>
					<path class="st4" d="M-355.89,170.78c-3.43,0.26-5.68,2.53-7.96,4.71c-4.44,4.25-8.6,8.81-13.63,12.42
						c-5.7,4.09-11.64,5.46-18.14,1.82c-18.07-10.13-36.79-9.68-55.9-3.43c-6.15,2.01-12.38,3.78-18.31,6.45
						c-1.54,0.69-3.3,0.92-3.09,3.2c-2.46-2.16-0.99-4.44,0.24-6.22c2.1-3.03,3.06-6.21,2.85-9.82c8.77,3.71,17.28,1.59,25.69-1.29
						c12.41-4.25,23.17-11.58,34.1-18.57c14.65,2.05,29.3,4.1,43.95,6.13C-362.24,166.72-359.06,168.72-355.89,170.78z"/>
					<path class="st6" d="M-410.05,160.05c-3.1,5.31-8.85,7.11-13.67,10.02c-12.56,7.6-25.6,13.88-40.93,13.13
						c-2.7-0.13-4.26-0.92-5.19-3.29c-2.03-4.69-6.08-7.38-10.16-9.94c-8.67-5.44-8.86-10.8-0.96-19.48
						c1.5-1.65,3.14-1.26,5.01-0.96C-453.99,153.08-432.02,156.55-410.05,160.05z"/>
					<path class="st4" d="M-312.02,203.09c-7.42-6.47-13.5-14.17-19.72-21.72c-1.92-2.33-3.86-4.53-6.35-6.22
						c6.65-0.05,12.81-1.96,18.38-5.42c2.15-1.34,3.65-1.26,5.84-0.3c7.79,3.4,15.96,5.93,24.43,6.25
						c8.9,0.34,17.32-2.56,25.38-6.24c4.15-1.9,8.17-4.09,13.33-6.7c-6.26,10.55-13.9,18.22-22.62,24.83
						c-9.62,7.3-20.35,12.46-32.07,15.49c-1.43,0.37-2.95,0.62-3.81,2.07C-310.89,205.45-311.16,203.87-312.02,203.09z"/>
					<path class="st7" d="M-352.89,64.9c-12.69,4.6-24.43,10.93-35.15,19.13c-13.34-4.64-26.02-10.89-39.09-16.18
						c-3.68-1.49-7.25-3.22-10.88-4.84c8.55-3.5,16.81-7.87,26.04-9.47c18.46-3.21,36.53-3.03,53.42,6.63
						C-356.37,61.43-354.32,62.77-352.89,64.9z"/>
					<path class="st7" d="M-381.83,220.93c-9.72,10.8-22.25,8.82-34.24,6.7c-15.32-2.7-27.16,1.08-36.11,14.27
						c-2.73,4.03-4.88,9.06-9.97,11.18c-4.03-2.44-5.16-6.18-4.95-10.64c0.29-6.3,1.36-12.46,3.18-18.49
						c0.26-0.21,0.51-0.53,0.81-0.57c11.01-1.64,19.77-8.11,29.2-13.27c12.06-6.6,24.1-6.58,35.54,1.89
						c4.98,3.69,11.31,4.66,16.45,8.06C-381.87,220.35-381.84,220.64-381.83,220.93z"/>
					<path class="st3" d="M-381.93,220.06c-6.4-0.77-12.24-3.42-17.26-7.07c-10.42-7.59-21.12-7.94-32.28-2.65
						c-4.62,2.19-8.9,5.1-13.24,7.84c-5.89,3.72-12.27,5.65-19.22,5.78c0.39-4.85-0.75-9.09-4.39-12.61
						c-2.84-2.75-2.98-5.74,0.23-8.48c3.97,3.01,8.21,0.42,11.94-0.15c12.91-1.99,25.83-1.61,38.77-1.71
						c15.44-0.12,30.78,1.29,46.12,2.71c1.42,0.13,2.91-0.42,4.36-0.66c0.26,0.26,0.32,0.47,0.18,0.64
						c-0.12,0.15-0.24,0.22-0.36,0.22C-373.83,207.63-377.76,213.96-381.93,220.06z"/>
					<path class="st7" d="M-317.01,258.01c-9.39-2.67-17.48-7.87-25.57-13.08c-5.7-3.67-11.24-8.11-18.43-7.92
						c-15.68,0.41-26.84,8.19-34.04,21.93c-2.81,0.58-3.17-3.46-5.86-3.1c-1.37-0.62-2.73-1.24-4.1-1.86
						c-1.01-1.52-2.78-0.68-4.53-1.37c8.56-12.7,19.81-20.85,35.01-22.53c20.02-2.21,36.99,4.46,50.89,18.88
						C-321.06,251.64-318.23,254.28-317.01,258.01z"/>
					<path class="st8" d="M-231.98,135.02c-20.8,15.71-44.07,22.76-70.15,20.19c-2.81-0.28-3.25-1.12-2.41-3.77
						c1.1-3.46,2.27-7.12,2.22-10.68c-0.05-4.59,1.89-4.43,5.34-3.86c16.14,2.64,32.32,4.32,48.65,1.22
						c4.94-0.94,9.59-2.65,14.34-4.13C-232.82,133.36-231.89,133.19-231.98,135.02z"/>
					<path class="st4" d="M-367.08,203.91c0.05-0.29,0.12-0.57,0.19-0.86c6.84-2.99,13.87-5.23,21.34-6.08
						c9.19-1.04,16.44,2.52,22.58,8.98C-337.73,206.48-352.37,204.4-367.08,203.91z"/>
					<path class="st9" d="M-312.02,203.09c0.93,0.68,1.86,1.36,2.79,2.04c7,5.78,15.14,9.11,24.53,10.69
						c-7.73,5.06-29.16-0.85-37.5-9.74C-318.82,205.03-314.67,206.62-312.02,203.09z"/>
					<path class="st10" d="M-256.09,116.06c0.85-0.09,1.68-0.22,2.13-1.1c2.1,1.09,4.31,2.07,5.71,5.26
						C-251.32,118.59-253.71,117.32-256.09,116.06z"/>
					<path class="st11" d="M-400.91,255.84c3.24-1.4,3.58,2.69,5.87,3.1c-0.34,0.71-0.68,1.42-1.03,2.13
						C-397.68,259.33-399.29,257.59-400.91,255.84z"/>
					<path class="st12" d="M-211.96,246.04c-0.44-0.83-1.22-1.01-2.06-1.06c1.41-1.46,3.2-2.18,5.79-3
						C-209.23,244.11-210.47,245.18-211.96,246.04z"/>
					<path class="st13" d="M-231.98,135.02c-0.42-0.83-1.22-0.92-2.01-1.02c1.2-1.35,2.9-1.29,4.57-2.11
						C-229.59,133.98-230.86,134.43-231.98,135.02z"/>
					<path class="st14" d="M-280.85,277.03c-0.72-1.32-2.11-0.74-3.17-1.11c1.5-1.44,3.29-0.87,5.07-0.82
						C-278.96,276.44-280.16,276.48-280.85,277.03z"/>
					<path class="st15" d="M-364.03,137.74c-0.42-13.62,10.84-24.45,24.66-24.65c13.51-0.2,24.4,11.24,24.39,25.02
						c-0.01,13.72-11.03,24.82-24.57,24.88C-352.98,163.06-365.66,150.57-364.03,137.74z"/>
					<path class="st16" d="M-339.74,159.03c-11.15,1-21.13-9.87-21.2-21.72c-0.06-11.21,10.27-21.28,21.45-21.29
						c12.17-0.01,21.16,9.56,21.6,22.01C-317.53,148.46-328.65,160.58-339.74,159.03z"/>
					<path class="st17" d="M-321.01,137.76c-0.06,10.29-8.47,18.39-18.93,18.24c-9.08-0.13-17.92-8.95-18-17.94
						c-0.08-9.8,9.2-19.23,18.68-18.99C-329.39,119.33-320.95,127.97-321.01,137.76z"/>
				</g>
			</g>
		</g>
		<rect x="-592.5" y="0.5" class="st18" width="484" height="428"/>
	</g>
	<g>
		<defs>
			<rect id="SVGID_1_" width="308" height="298"/>
		</defs>
		<clipPath id="SVGID_2_">
			<use xlink:href="#SVGID_1_"  style="overflow:visible;"/>
		</clipPath>
		<g class="st19">
			<path class="st2" d="M19.53,129.97c1.85-20.75,9.11-43.33,21.49-64.29c2.64-4.47,5.73-4.92,10.42-2.9
				c33.15,14.3,66.48,28.18,99.54,42.68c5.81,2.55,11.4,1.07,17.05,1.85c15.27,2.1,27.35,15.03,27.28,30.85
				c-0.07,16.15-10.27,28.16-25.45,31.42c-9.08,1.95-17.2-0.34-24.44-5.7c-3.98-2.95-8.58-2.52-12.88-3.17
				c-32.82-4.97-65.75-9.26-98.42-15.17c-1.63-0.3-3.25-0.72-4.89-0.97C20.38,143.23,19.35,142.07,19.53,129.97z"/>
			<path class="st3" d="M65.49,63.51C55,59.4,54.53,58.93,62.8,50.77C92.88,21.1,128.51,8.19,170.66,17.05
				c33.68,7.08,58.88,26.06,76.07,55.73c3.25,5.61,5.53,11.7,7.14,18.03c0.62,2.45,0.68,3.77-2.48,3.57
				c-23.03-1.46-45.34-5.03-63.94-20.45c-10.49-8.7-22.29-12.33-35.79-8.26c-0.5,0.29-1.02,0.33-1.56,0.14
				c-24.72-16.9-50.49-14.91-76.74-4.25C70.82,62.59,68.53,64.53,65.49,63.51z"/>
			<path class="st4" d="M291.54,246.54c-12.64,11.24-27.89,16.53-44.24,18.87c-18.34,2.63-36.43,0.9-54.17-4.5
				c-1.26-0.39-2.6-0.88-3.6,0.56c-2.24,0.42-2.91-1.47-4.01-2.72c-11.58-17.57-28.25-26.71-48.92-27.42
				c-15.38-0.53-28.52,5.7-38.34,17.99c-1.03,1.29-2.09,2.56-3.26,3.81c-0.58,0.11,0.35,0.81,0,0.24c-0.16-0.27-0.05-0.34,0.28-0.42
				c1.52-0.39,3.03-0.83,3.21,1.54c-11.78-0.5-23.24,2.31-34.85,3.54c-8.01,0.85-15.35-0.53-22.3-4.45
				c4.48-6.58,9.47-12.79,14.71-18.74c8.03-9.11,18.71-9.66,29.78-8.33c4.93,0.59,9.83,1.5,14.81,1.64
				c6.48,0.19,12.56-0.82,17.49-5.57c0.92-0.89,2.01-1.82,3.53-1.15c10.8,3.44,21.92,5.41,33.19,5.77
				c6.57,0.21,13.37-0.31,19.74-1.87c15.07-3.67,25.22,3.02,33.96,14.16c6.1,7.78,12.73,15.29,23.61,15.92
				c12.81,0.74,25.55,0.03,38.03-3.33c6.57-1.77,13.12-3.61,19.28-6.6C290.69,244.81,291.55,244.82,291.54,246.54z"/>
			<path class="st3" d="M186.49,258.51c1.01,0.99,2.03,1.97,3.04,2.96c7.21,10.54,16.27,17.36,29.95,14.96
				c1.31-0.35,2.79-1.2,3.17,1.11c-5.98,5.23-13.45,6.26-20.86,6.96c-17.42,1.63-34.38-1.61-51.26-5.38
				c-5.82-1.3-11.63-2.7-17.68-2.69c-6.01,0.01-11.49,1.78-16.52,4.87c-3.18,1.95-4.22,0.84-4.88-2.32
				c-1.22-5.82-2.66-11.6-4.02-17.39c-0.41-1.03,0.04-1.99,0.22-2.97c7.21-13.98,18.6-21.55,34.37-22.37
				c2.88-0.15,5.71,0.44,8.21,1.74C162.55,244.41,174.02,252.35,186.49,258.51z"/>
			<path class="st5" d="M181.31,206.58c-0.27,0.01-0.52-0.03-0.77-0.13c-1.45-0.76-3.2-0.85-4.44-2.06
				c-6.42-6.25-14.18-6.12-22.3-4.92c-6.26,0.92-11.91,4.02-18.21,4.73c-4.99,2.34-10.19,0.93-15.2,0.53
				c-26.16-2.08-52.28-3.05-78.38,0.72c-2.36,0.34-5.34,1.59-6.58-2.08c0.97-4.12-3.17-4.66-4.84-6.92
				c-1.12-2.63,0.77-3.61,2.59-4.36c16.88-6.97,34.1-12.42,52.73-10.79c7.59,0.66,14.53,3.76,21.16,7.16
				c7.42,3.8,13.64,2.53,19.84-2.38c4.46-3.53,8.13-7.86,12.36-11.6c2.36-2.08,4.71-4.41,8.36-3.19c5.65,2.61,11.46,4.58,17.8,4.38
				c1.91,0.55,3.82,1.09,5.14,2.76c6.46,8.18,13.29,16.05,20.48,23.6c0.69,0.73,1.13,1.64,0.95,2.72
				C188.87,207.98,185.2,207.91,181.31,206.58z"/>
			<path class="st4" d="M150.61,65.4c0.35,0.09,0.7,0.18,1.06,0.27c6.01,5.85,10.06,13.2,15.04,19.83
				c7.08,9.42,16.6,13.35,27.94,14.03c11.76,0.71,23.56,1.01,34.88,5.01c7.29,2.57,13.96,6.15,20.01,10.92
				c0.02,1.77-0.93,1.67-2.13,1.1c-12.28-3.73-24.71-6.44-37.67-6.1c-5.04,0.14-9.96,0.81-14.57,2.82c-2.07,0.9-3.43,1.01-5.23-0.72
				c-7.73-7.42-17.12-10.66-27.76-10.01c-3.28,0.2-5.52-0.66-7.62-3.35c-2.87-3.67-6.38-6.83-11.2-7.93
				c-0.97-0.22-2.14-0.92-2.86-0.6c-8.47,3.79-14.84-2.17-21.95-4.62c-1.08-0.37-2.06-1.01-3.08-1.53c0.23-1.63,1.38-2.61,2.59-3.47
				c8.67-6.11,17.86-11.26,27.75-15.12C147.33,65.35,148.92,64.77,150.61,65.4z"/>
			<path class="st4" d="M147.61,171.28c-3.43,0.26-5.68,2.53-7.96,4.71c-4.44,4.25-8.6,8.81-13.63,12.42
				c-5.7,4.09-11.64,5.46-18.14,1.82c-18.07-10.13-36.79-9.68-55.9-3.43c-6.15,2.01-12.38,3.78-18.31,6.45
				c-1.54,0.69-3.3,0.92-3.09,3.2c-2.46-2.16-0.99-4.44,0.24-6.22c2.1-3.03,3.06-6.21,2.85-9.82c8.77,3.71,17.28,1.59,25.69-1.29
				c12.41-4.25,23.17-11.58,34.1-18.57c14.65,2.05,29.3,4.1,43.95,6.13C141.26,167.22,144.44,169.22,147.61,171.28z"/>
			<path class="st6" d="M93.45,160.55c-3.1,5.31-8.85,7.11-13.67,10.02c-12.56,7.6-25.6,13.88-40.93,13.13
				c-2.7-0.13-4.26-0.92-5.19-3.29c-2.03-4.69-6.08-7.38-10.16-9.94c-8.67-5.44-8.86-10.8-0.96-19.48c1.5-1.65,3.14-1.26,5.01-0.96
				C49.51,153.58,71.48,157.05,93.45,160.55z"/>
			<path class="st4" d="M191.48,203.59c-7.42-6.47-13.5-14.17-19.72-21.72c-1.92-2.33-3.86-4.53-6.35-6.22
				c6.65-0.05,12.81-1.96,18.38-5.42c2.15-1.34,3.65-1.26,5.84-0.3c7.79,3.4,15.96,5.93,24.43,6.25c8.9,0.34,17.32-2.56,25.38-6.24
				c4.15-1.9,8.17-4.09,13.33-6.7c-6.26,10.55-13.9,18.22-22.62,24.83c-9.62,7.3-20.35,12.46-32.07,15.49
				c-1.43,0.37-2.95,0.62-3.81,2.07C192.61,205.95,192.34,204.37,191.48,203.59z"/>
			<path class="st7" d="M150.61,65.4c-12.69,4.6-24.43,10.93-35.15,19.13c-13.34-4.64-26.02-10.89-39.09-16.18
				c-3.68-1.49-7.25-3.22-10.88-4.84c8.55-3.5,16.81-7.87,26.04-9.47c18.46-3.21,36.53-3.03,53.42,6.63
				C147.13,61.93,149.18,63.27,150.61,65.4z"/>
			<path class="st7" d="M121.67,221.43c-9.72,10.8-22.25,8.82-34.24,6.7c-15.32-2.7-27.16,1.08-36.11,14.27
				c-2.73,4.03-4.88,9.06-9.97,11.18c-4.03-2.44-5.16-6.18-4.95-10.64c0.29-6.3,1.36-12.46,3.18-18.49
				c0.26-0.21,0.51-0.53,0.81-0.57c11.01-1.64,19.77-8.11,29.2-13.27c12.06-6.6,24.1-6.58,35.54,1.89
				c4.98,3.69,11.31,4.66,16.45,8.06C121.63,220.85,121.66,221.14,121.67,221.43z"/>
			<path class="st3" d="M121.57,220.56c-6.4-0.77-12.24-3.42-17.26-7.07c-10.42-7.59-21.12-7.94-32.28-2.65
				c-4.62,2.19-8.9,5.1-13.24,7.84c-5.89,3.72-12.27,5.65-19.22,5.78c0.39-4.85-0.75-9.09-4.39-12.61
				c-2.84-2.75-2.98-5.74,0.23-8.48c3.97,3.01,8.21,0.42,11.94-0.15c12.91-1.99,25.83-1.61,38.77-1.71
				c15.44-0.12,30.78,1.29,46.12,2.71c1.42,0.13,2.91-0.42,4.36-0.66c0.26,0.26,0.32,0.47,0.18,0.64c-0.12,0.15-0.24,0.22-0.36,0.22
				C129.67,208.13,125.74,214.46,121.57,220.56z"/>
			<path class="st7" d="M186.49,258.51c-9.39-2.67-17.48-7.87-25.57-13.08c-5.7-3.67-11.24-8.11-18.43-7.92
				c-15.68,0.41-26.84,8.19-34.04,21.93c-2.81,0.58-3.17-3.46-5.86-3.1c-1.37-0.62-2.73-1.24-4.1-1.86
				c-1.01-1.52-2.78-0.68-4.53-1.37c8.56-12.7,19.81-20.85,35.01-22.53c20.02-2.21,36.99,4.46,50.89,18.88
				C182.44,252.14,185.27,254.78,186.49,258.51z"/>
			<path class="st8" d="M271.52,135.52c-20.8,15.71-44.07,22.76-70.15,20.19c-2.81-0.28-3.25-1.12-2.41-3.77
				c1.1-3.46,2.27-7.12,2.22-10.68c-0.05-4.59,1.89-4.43,5.34-3.86c16.14,2.64,32.32,4.32,48.65,1.22
				c4.94-0.94,9.59-2.65,14.34-4.13C270.68,133.86,271.61,133.69,271.52,135.52z"/>
			<path class="st4" d="M136.42,204.41c0.05-0.29,0.12-0.57,0.19-0.86c6.84-2.99,13.87-5.23,21.34-6.08
				c9.19-1.04,16.44,2.52,22.58,8.98C165.77,206.98,151.13,204.9,136.42,204.41z"/>
			<path class="st9" d="M191.48,203.59c0.93,0.68,1.86,1.36,2.79,2.04c7,5.78,15.14,9.11,24.53,10.69
				c-7.73,5.06-29.16-0.85-37.5-9.74C184.68,205.53,188.83,207.12,191.48,203.59z"/>
			<path class="st10" d="M247.41,116.56c0.85-0.09,1.68-0.22,2.13-1.1c2.1,1.09,4.31,2.07,5.71,5.26
				C252.18,119.09,249.79,117.82,247.41,116.56z"/>
			<path class="st11" d="M102.59,256.34c3.24-1.4,3.58,2.69,5.87,3.1c-0.34,0.71-0.68,1.42-1.03,2.13
				C105.82,259.83,104.21,258.09,102.59,256.34z"/>
			<path class="st12" d="M291.54,246.54c-0.44-0.83-1.22-1.01-2.06-1.06c1.41-1.46,3.2-2.18,5.79-3
				C294.27,244.61,293.03,245.68,291.54,246.54z"/>
			<path class="st13" d="M271.52,135.52c-0.42-0.83-1.22-0.92-2.01-1.02c1.2-1.35,2.9-1.29,4.57-2.11
				C273.91,134.48,272.64,134.93,271.52,135.52z"/>
			<path class="st14" d="M222.65,277.53c-0.72-1.32-2.11-0.74-3.17-1.11c1.5-1.44,3.29-0.87,5.07-0.82
				C224.54,276.94,223.34,276.98,222.65,277.53z"/>
			<path class="st15" d="M139.47,138.24c-0.42-13.62,10.84-24.45,24.66-24.65c13.51-0.2,24.4,11.24,24.39,25.02
				c-0.01,13.72-11.03,24.82-24.57,24.88C150.52,163.56,137.84,151.07,139.47,138.24z"/>
			<path class="st16" d="M163.76,159.53c-11.15,1-21.13-9.87-21.2-21.72c-0.06-11.21,10.27-21.28,21.45-21.29
				c12.17-0.01,21.16,9.56,21.6,22.01C185.97,148.96,174.85,161.08,163.76,159.53z"/>
			<path class="st17" d="M182.49,138.26c-0.06,10.29-8.47,18.39-18.93,18.24c-9.08-0.13-17.92-8.95-18-17.94
				c-0.08-9.8,9.2-19.23,18.68-18.99C174.11,119.83,182.55,128.47,182.49,138.26z"/>
		</g>
	</g>
	<g>
		<defs>
			<rect id="SVGID_3_" x="420" y="307" width="476" height="120"/>
		</defs>
		<clipPath id="SVGID_4_">
			<use xlink:href="#SVGID_3_"  style="overflow:visible;"/>
		</clipPath>
		<path class="st20" d="M857.89,373.28c1.06-0.66,1.77-1.15,2.51-1.55c11.32-6.15,16.45-16.77,14.23-29.49
			c-2.23-12.83-9.79-21.04-23.08-21.87c-15.88-0.99-31.88-0.23-48.56-0.23c-7.47,22.44-15.23,45.73-23.56,70.77
			c-1.46-4.06-2.24-6.11-2.94-8.18c-6.68-19.5-13.28-39.03-20.1-58.48c-0.68-1.94-2.56-4.76-4.07-4.89
			c-6.47-0.55-13.01-0.23-20.16-0.23c0.99,3.11,1.59,5.21,2.32,7.26c9.3,26.1,18.62,52.19,27.95,78.28
			c5.18,14.48,5.19,14.21,20.92,14.58c5.19,0.12,7.24-1.68,8.86-6.35c8.29-23.87,16.88-47.64,25.55-71.37
			c0.7-1.91,2.72-4.65,4.24-4.73c7.07-0.36,14.24-0.41,21.26,0.39c6.76,0.78,10.38,5.65,10.2,11.87
			c-0.19,6.43-4.5,10.73-11.57,11.38c-3.86,0.35-7.74,0.46-12.43,0.73c11.25,17.13,21.84,33.25,32.42,49.37
			c5.74,8.74,10.12,10.54,20.26,8.26c2.23-0.5,4.42-1.14,7.19-1.85C878.68,402.18,868.34,387.81,857.89,373.28z"/>
		<path class="st20" d="M713.73,375.25c0-6.11,0-11.5,0-17.56c-16.52,0-32.6,0-48.66,0c0-7.39,0-14.11,0-21.32
			c17.78,0,35.01,0,52.57,0c0-5.94,0-11.35,0-17.17c-24.83,0-49.31,0-73.81,0c0,33.45,0,66.4,0,99.49c25.52,0,50.49,0,75.49,0
			c0-5.81,0-11.19,0-17.18c-18.43,0-36.31,0-54.44,0c0-8.93,0-17.24,0-26.26C681.33,375.25,697.42,375.25,713.73,375.25z"/>
		<path class="st20" d="M520.16,344.5c-6.89-34.13-50.07-35.71-68.63-20.71c-15.41,12.45-18.6,29.43-17.72,47.89
			c1.47,30.67,20.97,48.15,51.33,46.07c18.23-1.25,33.52-15.51,34.75-32.71c-6.2-1.94-12.46-3.89-19-5.93
			c-1.15,2.96-2,5.45-3.06,7.84c-3.68,8.25-9.95,13.19-19.09,13.14c-9.2-0.05-16.58-4.37-20.01-13.01
			c-5.35-13.47-5.47-27.43-0.24-40.96c3.23-8.34,10.26-12.67,19.17-13.37c7.92-0.62,14.34,2.45,18.79,9.11
			c1.44,2.16,2.37,4.65,3.76,7.44C507,347.66,513.59,346.08,520.16,344.5z"/>
		<path class="st20" d="M546.14,318.96c0,33.06,0,65.74,0,98.38c23.52,0,46.51,0,69.61,0c0-5.83,0-11.22,0-17.26
			c-16.63,0-32.75,0-49.63,0c0-27.38,0-54.13,0-81.12C559.03,318.96,552.71,318.96,546.14,318.96z"/>
		<path class="st20" d="M827.78,377.82c-4.94-0.29-9.5,3.79-9.79,8.76c-0.29,4.94,3.79,9.5,8.76,9.79c4.94,0.29,9.5-3.79,9.79-8.76
			C836.83,382.68,832.75,378.11,827.78,377.82z"/>
		<path class="st21" d="M857.89,373.28c10.45,14.53,20.79,28.9,31.41,43.66c-2.77,0.72-4.96,1.35-7.19,1.85
			c-10.13,2.29-14.52,0.48-20.26-8.26c-10.58-16.12-21.17-32.24-32.42-49.37c4.69-0.27,8.57-0.38,12.43-0.73
			c7.08-0.64,11.38-4.95,11.57-11.38c0.18-6.22-3.44-11.1-10.2-11.87c-7.02-0.81-14.19-0.75-21.26-0.39
			c-1.52,0.08-3.55,2.82-4.24,4.73c-8.67,23.74-17.26,47.5-25.55,71.37c-1.62,4.67-3.67,6.47-8.86,6.35
			c-15.73-0.37-15.75-0.1-20.92-14.58c-9.33-26.09-18.64-52.18-27.95-78.28c-0.73-2.05-1.33-4.15-2.32-7.26
			c7.15,0,13.69-0.31,20.16,0.23c1.52,0.13,3.39,2.95,4.07,4.89c6.82,19.45,13.43,38.98,20.1,58.48c0.71,2.07,1.48,4.12,2.94,8.18
			c8.34-25.04,16.09-48.33,23.56-70.77c16.68,0,32.68-0.76,48.56,0.23c13.29,0.83,20.85,9.04,23.08,21.87
			c2.22,12.72-2.92,23.34-14.23,29.49C859.65,372.13,858.95,372.62,857.89,373.28z"/>
		<path class="st21" d="M713.73,375.25c-16.31,0-32.4,0-48.84,0c0,9.02,0,17.33,0,26.26c18.13,0,36.01,0,54.44,0
			c0,5.99,0,11.38,0,17.18c-25,0-49.97,0-75.49,0c0-33.09,0-66.03,0-99.49c24.5,0,48.98,0,73.81,0c0,5.82,0,11.24,0,17.17
			c-17.56,0-34.79,0-52.57,0c0,7.21,0,13.93,0,21.32c16.06,0,32.14,0,48.66,0C713.73,363.74,713.73,369.14,713.73,375.25z"/>
		<path class="st21" d="M520.16,344.5c-6.57,1.58-13.16,3.16-19.94,4.79c-1.39-2.79-2.32-5.29-3.76-7.44
			c-4.45-6.66-10.87-9.73-18.79-9.11c-8.91,0.7-15.94,5.03-19.17,13.37c-5.24,13.53-5.11,27.49,0.24,40.96
			c3.43,8.64,10.81,12.95,20.01,13.01c9.14,0.05,15.41-4.89,19.09-13.14c1.07-2.39,1.91-4.88,3.06-7.84c6.54,2.04,12.8,4,19,5.93
			c-1.24,17.2-16.52,31.46-34.75,32.71c-30.37,2.09-49.87-15.39-51.33-46.07c-0.88-18.46,2.31-35.44,17.72-47.89
			C470.09,308.8,513.27,310.37,520.16,344.5z"/>
		<path class="st21" d="M546.14,318.96c6.57,0,12.89,0,19.98,0c0,26.99,0,53.74,0,81.12c16.87,0,32.99,0,49.63,0
			c0,6.03,0,11.43,0,17.26c-23.1,0-46.09,0-69.61,0C546.14,384.7,546.14,352.03,546.14,318.96z"/>
		<path class="st21" d="M827.78,377.82c4.97,0.29,9.05,4.85,8.76,9.79c-0.29,4.97-4.85,9.05-9.79,8.76
			c-4.96-0.29-9.05-4.85-8.76-9.79C818.28,381.62,822.84,377.54,827.78,377.82z"/>
	</g>
</g>
</svg>
